<svg width="161" height="77" viewBox="0 0 161 77" fill="none" xmlns="http://www.w3.org/2000/svg">
<path d="M72.125 75.144C71.581 74.92 71.181 74.688 70.925 74.448C70.685 74.192 70.589 73.968 70.637 73.776C70.669 73.68 70.725 73.592 70.805 73.512C70.885 73.432 71.061 73.4 71.333 73.416C71.621 73.416 72.061 73.488 72.653 73.632C72.829 73.632 73.005 73.624 73.181 73.608C73.357 73.592 73.517 73.568 73.661 73.536C73.821 73.504 73.949 73.464 74.045 73.416C74.125 73.384 74.149 73.344 74.117 73.296C74.085 73.232 74.029 73.168 73.949 73.104C73.885 73.024 73.813 72.976 73.733 72.96C73.653 72.928 73.581 72.912 73.517 72.912C73.485 72.832 73.413 72.752 73.301 72.672C73.205 72.592 73.085 72.504 72.941 72.408C72.589 72.12 72.269 71.864 71.981 71.64C71.693 71.416 71.581 71.248 71.645 71.136C71.645 71.072 71.645 71.04 71.645 71.04C71.645 71.024 71.645 71.016 71.645 71.016C71.533 71.016 71.429 70.864 71.333 70.56C71.237 70.24 71.189 69.952 71.189 69.696C71.189 69.376 71.253 69.056 71.381 68.736C71.525 68.416 71.701 68.112 71.909 67.824C72.133 67.536 72.357 67.28 72.581 67.056C72.885 66.768 73.205 66.488 73.541 66.216C73.893 65.928 74.269 65.672 74.669 65.448C75.085 65.224 75.541 65.048 76.037 64.92C76.261 64.872 76.517 64.848 76.805 64.848C77.093 64.848 77.301 64.888 77.429 64.968C77.557 64.888 77.717 64.912 77.909 65.04C78.101 65.152 78.293 65.312 78.485 65.52C78.677 65.728 78.821 65.936 78.917 66.144C78.917 66.336 78.909 66.576 78.893 66.864C78.893 67.136 78.877 67.376 78.845 67.584C78.813 67.792 78.741 67.896 78.629 67.896C78.629 67.896 78.605 67.904 78.557 67.92C78.525 67.92 78.509 67.96 78.509 68.04C78.509 68.2 78.389 68.384 78.149 68.592C77.845 68.8 77.557 68.968 77.285 69.096C77.013 69.224 76.805 69.232 76.661 69.12C76.565 69.056 76.477 68.992 76.397 68.928C76.317 68.864 76.245 68.784 76.181 68.688C76.181 68.688 76.157 68.656 76.109 68.592C76.077 68.512 76.061 68.44 76.061 68.376C76.061 68.312 76.085 68.256 76.133 68.208C76.181 68.144 76.205 68.112 76.205 68.112C76.429 67.904 76.597 67.712 76.709 67.536C76.837 67.36 76.925 67.208 76.973 67.08C77.021 66.936 77.045 66.824 77.045 66.744C77.045 66.648 77.021 66.592 76.973 66.576C76.941 66.544 76.861 66.528 76.733 66.528C76.653 66.528 76.477 66.592 76.205 66.72C75.949 66.848 75.677 67.008 75.389 67.2C75.101 67.376 74.877 67.536 74.717 67.68C74.653 67.792 74.605 67.864 74.573 67.896C74.557 67.928 74.517 67.944 74.453 67.944C74.453 67.88 74.413 67.888 74.333 67.968C74.253 68.048 74.157 68.16 74.045 68.304C73.933 68.448 73.821 68.6 73.709 68.76C73.597 68.92 73.509 69.048 73.445 69.144C73.429 69.288 73.389 69.424 73.325 69.552C73.277 69.664 73.261 69.784 73.277 69.912C73.293 70.072 73.373 70.224 73.517 70.368C73.661 70.512 73.869 70.696 74.141 70.92C74.701 71.336 75.117 71.664 75.389 71.904C75.677 72.144 75.877 72.336 75.989 72.48C76.101 72.624 76.173 72.768 76.205 72.912C76.477 73.408 76.509 73.84 76.301 74.208C76.093 74.56 75.773 74.832 75.341 75.024C75.181 75.104 74.901 75.176 74.501 75.24C74.101 75.32 73.677 75.352 73.229 75.336C72.797 75.336 72.429 75.272 72.125 75.144Z" fill="white"/>
<path d="M64.4456 74.7839C63.8216 74.5279 63.3895 74.1119 63.1495 73.5359C62.9095 72.9599 62.8455 72.1919 62.9575 71.2319C62.9895 70.7359 62.9736 70.4079 62.9096 70.2479C62.8456 70.0719 62.7255 69.9039 62.5495 69.7439C62.5015 69.6799 62.3896 69.5759 62.2136 69.4319C62.0376 69.2719 61.9575 69.1519 61.9735 69.0719C61.9575 68.9599 61.9816 68.8239 62.0456 68.6639C62.1096 68.4879 62.1656 68.3919 62.2136 68.3759C62.3256 68.3279 62.4375 68.2719 62.5495 68.2079C62.6775 68.1439 62.7736 68.1279 62.8376 68.1599C62.9016 68.1599 62.9976 68.1999 63.1256 68.2799C63.2696 68.3599 63.3415 68.4319 63.3415 68.4959C63.4055 68.6079 63.5016 68.5599 63.6296 68.3519C63.7736 68.1439 63.9256 67.8799 64.0856 67.5599C64.2456 67.3039 64.4456 67.0639 64.6856 66.8399C64.9256 66.6159 65.1656 66.4159 65.4056 66.2399C65.6616 66.0479 65.8775 65.9039 66.0535 65.8079C66.1335 65.7759 66.2855 65.7279 66.5095 65.6639C66.7495 65.5999 66.9976 65.5519 67.2536 65.5199C67.5096 65.4719 67.7015 65.4559 67.8295 65.4719C68.1175 65.4879 68.4216 65.6079 68.7416 65.8319C69.0616 66.0559 69.3095 66.2639 69.4855 66.4559C69.6935 66.5999 69.8296 66.8239 69.8936 67.1279C69.9736 67.4159 70.0056 67.7199 69.9896 68.0399C69.9736 68.3599 69.9096 68.6319 69.7976 68.8559C69.7496 69.0159 69.5816 69.2399 69.2936 69.5279C69.0056 69.8159 68.6856 70.0959 68.3336 70.3679C67.9976 70.6239 67.7095 70.7999 67.4695 70.8959C67.2615 70.9439 67.0136 70.9839 66.7256 71.0159C66.4376 71.0319 66.1656 71.0319 65.9096 71.0159C65.6696 70.9839 65.5016 70.9439 65.4056 70.8959C65.2936 70.8319 65.1976 70.8559 65.1176 70.9679C65.0536 71.0639 64.9976 71.3359 64.9496 71.7839C64.9336 71.9599 64.9336 72.1119 64.9496 72.2399C64.9816 72.3679 65.0136 72.4639 65.0456 72.5279C65.1576 72.7199 65.2696 72.8639 65.3816 72.9599C65.4936 73.0399 65.7016 73.0639 66.0056 73.0319C66.3096 72.9999 66.6136 72.8159 66.9176 72.4799C67.2376 72.1279 67.5256 71.8479 67.7816 71.6399C67.8456 71.5279 67.9815 71.4559 68.1895 71.4239C68.4135 71.3759 68.6775 71.3919 68.9815 71.4719C69.1575 71.5839 69.2376 71.7599 69.2216 71.9999C69.2216 72.2399 69.0936 72.5919 68.8376 73.0559C68.7896 73.1679 68.6535 73.3359 68.4295 73.5599C68.2215 73.7679 67.9895 73.9839 67.7335 74.2079C67.4935 74.4159 67.2935 74.5679 67.1335 74.6639C66.6535 74.9199 66.1815 75.0399 65.7175 75.0239C65.2535 75.0079 64.8296 74.9279 64.4456 74.7839ZM66.2215 69.3839C66.4615 69.3199 66.6616 69.2559 66.8216 69.1919C66.9976 69.1279 67.1656 69.0239 67.3256 68.8799C67.4856 68.7359 67.6696 68.5199 67.8776 68.2319C67.9416 68.0559 67.9736 67.9039 67.9736 67.7759C67.9896 67.6479 67.9816 67.5679 67.9496 67.5359C67.8216 67.4079 67.6776 67.3679 67.5176 67.4159C67.3736 67.4479 67.2135 67.5279 67.0375 67.6559C66.9255 67.7039 66.7656 67.8079 66.5576 67.9679C66.3656 68.1119 66.1735 68.2799 65.9815 68.4719C65.8055 68.6479 65.6616 68.8159 65.5496 68.9759C65.4536 69.1199 65.4376 69.2079 65.5016 69.2399C65.4696 69.3039 65.5576 69.3439 65.7656 69.3599C65.9896 69.3759 66.1415 69.3839 66.2215 69.3839Z" fill="white"/>
<path d="M57.124 76.4399C56.34 76.4239 55.836 76.2 55.612 75.768C55.404 75.352 55.348 74.8239 55.444 74.1839C55.54 73.8799 55.596 73.6079 55.612 73.3679C55.644 73.1119 55.716 72.9519 55.828 72.8879C55.828 72.8879 55.836 72.8639 55.852 72.8159C55.884 72.7679 55.876 72.7199 55.828 72.6719C55.828 72.4639 55.9 72.1759 56.044 71.8079C56.076 71.7119 56.116 71.5999 56.164 71.4719C56.228 71.3279 56.26 71.2559 56.26 71.2559C56.18 71.1279 56.18 71.0239 56.26 70.9439C56.34 70.8639 56.42 70.7919 56.5 70.7279C56.596 70.6479 56.604 70.5599 56.524 70.4639C56.492 70.3999 56.532 70.2559 56.644 70.0319C56.756 69.7919 56.884 69.5439 57.028 69.2879C57.172 69.0319 57.268 68.8319 57.316 68.6879C57.316 68.6559 57.356 68.5439 57.436 68.3519C57.516 68.1599 57.612 67.9359 57.724 67.6799C57.836 67.4239 57.94 67.192 58.036 66.984C58.148 66.776 58.22 66.6399 58.252 66.5759C58.412 66.4959 58.348 66.4399 58.06 66.4079C57.772 66.3759 57.468 66.3679 57.148 66.3839C56.652 66.3679 56.252 66.3439 55.948 66.3119C55.66 66.2799 55.42 66.2079 55.228 66.0959C55.036 65.8719 55.012 65.6079 55.156 65.3039C55.3 64.9839 55.532 64.8159 55.852 64.7999C56.06 64.7839 56.22 64.7759 56.332 64.7759C56.46 64.7759 56.62 64.7679 56.812 64.7519C57.02 64.7199 57.34 64.6799 57.772 64.6319L58.996 64.5359L59.068 64.1279C59.196 63.9199 59.284 63.7839 59.332 63.7199C59.38 63.6559 59.412 63.5919 59.428 63.5279C59.444 63.4479 59.468 63.3119 59.5 63.1199C59.5 63.1199 59.572 62.9919 59.716 62.7359C59.86 62.4639 59.948 62.1839 59.98 61.8959C60.172 61.5759 60.34 61.2879 60.484 61.0319C60.628 60.7599 60.716 60.5919 60.748 60.5279C61.02 60.1279 61.284 59.9119 61.54 59.8799C61.812 59.8479 62.068 59.9119 62.308 60.0719C62.452 60.1519 62.588 60.2559 62.716 60.3839C62.844 60.4959 62.924 60.6479 62.956 60.8399C62.988 61.0159 62.916 61.2479 62.74 61.5359C62.708 61.5999 62.6601 61.7199 62.5961 61.8959C62.5321 62.0559 62.484 62.1919 62.452 62.3039C62.356 62.4159 62.236 62.5999 62.092 62.8559C61.964 63.0959 61.876 63.3439 61.828 63.5999C61.7 63.8719 61.62 64.0399 61.588 64.1039C61.556 64.1679 61.508 64.1999 61.444 64.1999C61.476 64.3599 61.572 64.4399 61.732 64.4399C61.892 64.4239 62.156 64.4079 62.524 64.3919C62.828 64.3599 63.036 64.3279 63.148 64.2959C63.276 64.2479 63.42 64.2639 63.58 64.3439C63.66 64.4559 63.7 64.6239 63.7 64.8479C63.716 65.0559 63.692 65.2639 63.628 65.4719C63.564 65.6639 63.476 65.7839 63.364 65.8319C63.284 65.8319 63.1161 65.8799 62.8601 65.9759C62.6201 66.0559 62.316 66.1039 61.948 66.1199L60.676 66.2399L60.268 67.0559C60.156 67.2639 60.06 67.4559 59.98 67.6319C59.9 67.7919 59.844 67.8879 59.812 67.9199C59.812 68.0159 59.756 68.1599 59.644 68.3519C59.548 68.5439 59.444 68.7519 59.332 68.9759C59.236 69.2479 59.124 69.4959 58.996 69.7199C58.884 69.9439 58.828 70.0559 58.828 70.0559C58.764 70.0559 58.732 70.1039 58.732 70.1999C58.812 70.3919 58.788 70.5359 58.66 70.6319C58.58 70.6799 58.508 70.7519 58.444 70.8479C58.396 70.9279 58.372 70.9679 58.372 70.9679C58.436 71.0319 58.444 71.1119 58.396 71.2079C58.364 71.3039 58.316 71.4079 58.252 71.5199C58.252 71.6479 58.212 71.8319 58.132 72.0719C58.068 72.3119 57.996 72.5359 57.916 72.7439C57.932 73.0319 57.948 73.2159 57.964 73.2959C57.98 73.3759 58.02 73.4079 58.084 73.3919C58.164 73.4079 58.276 73.4079 58.42 73.3919C58.564 73.3759 58.668 73.3679 58.732 73.3679C58.972 73.2559 58.86 73.8159 58.396 75.0479C58.14 75.4479 57.884 75.7759 57.628 76.0319C57.372 76.304 57.204 76.4399 57.124 76.4399Z" fill="white"/>
<path d="M51.8409 75.144C51.7289 75.208 51.5769 75.184 51.3849 75.072C51.2089 74.96 51.0329 74.792 50.8569 74.568C50.7449 74.376 50.6569 74.184 50.5929 73.992C50.5449 73.784 50.5209 73.48 50.5209 73.08C50.5369 72.76 50.5369 72.544 50.5209 72.432C50.5209 72.304 50.4489 72.296 50.3049 72.408C50.1769 72.504 49.9129 72.744 49.5129 73.128C49.1129 73.528 48.7289 73.872 48.3609 74.16C48.0089 74.432 47.7209 74.56 47.4969 74.544C47.3849 74.544 47.2329 74.472 47.0409 74.328C46.8489 74.184 46.6649 74.008 46.4889 73.8C46.3129 73.576 46.1849 73.368 46.1049 73.176C46.0089 72.792 46.0009 72.296 46.0809 71.688C46.1769 71.08 46.3289 70.448 46.5369 69.792C46.7449 69.12 46.9769 68.496 47.2329 67.92C47.5049 67.328 47.7689 66.856 48.0249 66.504C48.2969 66.136 48.5289 65.96 48.7209 65.976C48.9929 66.008 49.2249 66.144 49.4169 66.384C49.6249 66.608 49.7849 66.856 49.8969 67.128C49.9609 67.24 49.9849 67.336 49.9689 67.416C49.9689 67.496 49.9049 67.592 49.7769 67.704C49.6329 67.896 49.4569 68.176 49.2489 68.544C49.0569 68.896 48.8569 69.28 48.6489 69.696C48.4569 70.112 48.2809 70.512 48.1209 70.896C47.9769 71.264 47.8729 71.568 47.8089 71.808C47.7449 72.048 47.7449 72.168 47.8089 72.168C48.0329 72.168 48.2409 72.112 48.4329 72C48.6249 71.872 48.8649 71.672 49.1529 71.4C49.4889 71.064 49.7849 70.728 50.0409 70.392C50.2969 70.04 50.5609 69.64 50.8329 69.192C51.0409 68.872 51.2569 68.52 51.4809 68.136C51.7209 67.752 51.8729 67.48 51.9369 67.32C52.1609 66.904 52.3289 66.592 52.4409 66.384C52.5529 66.176 52.6889 66.048 52.8489 66C52.9289 66 53.0409 66 53.1849 66C53.3289 66 53.4009 66 53.4009 66C53.4969 66.016 53.6089 66.088 53.7369 66.216C53.8649 66.28 53.9929 66.368 54.1209 66.48C54.2649 66.592 54.3369 66.688 54.3369 66.768C54.2729 66.928 54.1689 67.168 54.0249 67.488C53.8969 67.792 53.8009 68.016 53.7369 68.16C53.4329 68.848 53.1369 69.528 52.8489 70.2C52.5769 70.856 52.3769 71.528 52.2489 72.216C52.2169 72.44 52.2089 72.704 52.2249 73.008C52.2569 73.296 52.3049 73.504 52.3689 73.632C52.4169 73.728 52.4729 73.84 52.5369 73.968C52.6169 74.08 52.7049 74.176 52.8009 74.256C52.9449 74.352 52.9369 74.472 52.7769 74.616C52.6329 74.76 52.4489 74.888 52.2249 75C52.0169 75.096 51.8889 75.144 51.8409 75.144Z" fill="white"/>
<path d="M42.6493 74.904C42.4093 74.904 42.1773 74.832 41.9533 74.688C41.7293 74.528 41.5453 74.3121 41.4013 74.0401C41.2573 73.7521 41.1853 73.4161 41.1853 73.0321C41.1853 72.7921 41.2253 72.456 41.3053 72.024C41.4013 71.576 41.5373 71.0161 41.7133 70.3441C41.7453 70.1201 41.7693 69.976 41.7853 69.912C41.8173 69.848 41.8333 69.7841 41.8333 69.7201C41.8333 69.6881 41.8253 69.664 41.8093 69.648C41.8093 69.616 41.7933 69.6 41.7613 69.6C41.6333 69.6 41.4573 69.688 41.2333 69.864C41.0253 70.024 40.7853 70.216 40.5133 70.44C40.4653 70.472 40.4093 70.5121 40.3453 70.5601C40.2973 70.6081 40.2413 70.656 40.1773 70.704C40.1293 70.752 40.0733 70.8 40.0093 70.848C39.8493 70.944 39.6013 71.1281 39.2653 71.4001C38.9453 71.6721 38.6093 71.96 38.2573 72.264C37.9213 72.568 37.6253 72.8241 37.3693 73.0321C37.2413 73.1281 37.1293 73.208 37.0333 73.272C36.9533 73.336 36.8973 73.368 36.8653 73.368C36.8333 73.368 36.7053 73.3281 36.4813 73.2481C36.2733 73.1521 36.0653 73.024 35.8573 72.864C35.6653 72.688 35.5693 72.488 35.5693 72.264C35.5693 72.12 35.6253 71.8321 35.7373 71.4001C35.8653 70.9681 36.0413 70.456 36.2653 69.864C36.4893 69.272 36.7453 68.672 37.0333 68.064C37.0973 67.92 37.1453 67.728 37.1773 67.488C37.2093 67.248 37.2413 67.016 37.2733 66.792C37.3213 66.552 37.4013 66.376 37.5133 66.264C37.5613 66.184 37.6173 66.1281 37.6813 66.0961C37.7613 66.0481 37.8413 66.024 37.9213 66.024C38.0813 66.024 38.2333 66.0641 38.3773 66.1441C38.5213 66.2081 38.6573 66.32 38.7853 66.48C39.0253 66.736 39.1533 67.04 39.1693 67.392C39.2013 67.728 39.1773 68.056 39.0973 68.376C39.0173 68.696 38.9293 68.96 38.8333 69.168C38.7373 69.36 38.6893 69.4401 38.6893 69.4081C38.7533 69.3761 38.8413 69.296 38.9533 69.168C39.0813 69.04 39.2973 68.888 39.6013 68.712C40.0173 68.392 40.3373 68.1681 40.5613 68.0401C40.7853 67.8961 40.9533 67.792 41.0653 67.7281C41.1933 67.6641 41.3053 67.5921 41.4013 67.5121C41.4813 67.4481 41.5373 67.408 41.5693 67.392C41.6173 67.376 41.6413 67.368 41.6413 67.368C41.6893 67.368 41.7693 67.336 41.8813 67.272C42.0093 67.208 42.1293 67.176 42.2413 67.176C42.4013 67.176 42.5693 67.2161 42.7453 67.2961C42.9213 67.3601 43.0733 67.456 43.2013 67.584C43.3293 67.696 43.3933 67.816 43.3933 67.944C43.3933 67.992 43.4093 68.032 43.4413 68.064C43.4733 68.096 43.5053 68.136 43.5373 68.184C43.6173 68.28 43.7053 68.416 43.8013 68.592C43.9133 68.752 43.9693 69.016 43.9693 69.384C43.9693 69.64 43.9133 70.0161 43.8013 70.5121C43.6893 71.0081 43.5693 71.4961 43.4413 71.9761C43.3133 72.4721 43.2493 72.872 43.2493 73.176C43.2653 73.464 43.2973 73.688 43.3453 73.848C43.3933 73.992 43.4173 74.112 43.4173 74.208C43.4173 74.336 43.3533 74.4881 43.2253 74.6641C43.0973 74.8241 42.9053 74.904 42.6493 74.904Z" fill="white"/>
<path d="M30.3547 74.592C30.2267 74.464 30.1307 74.272 30.0667 74.016C30.0187 73.76 30.0027 73.512 30.0187 73.272C30.0347 73.016 30.0747 72.824 30.1387 72.696C30.1387 72.568 30.1547 72.472 30.1867 72.408C30.2347 72.328 30.2507 72.256 30.2347 72.192C30.2187 72.128 30.2347 72.016 30.2827 71.856C30.3307 71.696 30.3787 71.544 30.4267 71.4C30.5387 71.144 30.6667 70.816 30.8107 70.416C30.9547 70 31.0987 69.584 31.2427 69.168C31.3867 68.736 31.5067 68.368 31.6027 68.064C31.6987 67.744 31.7547 67.552 31.7707 67.488C31.7707 67.296 31.8987 67.192 32.1547 67.176C32.3467 67.112 32.5787 67.192 32.8507 67.416C33.1227 67.64 33.3387 67.88 33.4987 68.136C33.6267 68.264 33.6747 68.432 33.6427 68.64C33.6107 68.848 33.5067 69.144 33.3307 69.528C33.2667 69.656 33.1867 69.872 33.0907 70.176C33.0107 70.464 32.9547 70.704 32.9227 70.896C32.8587 71.024 32.7787 71.208 32.6827 71.448C32.6027 71.672 32.5307 71.888 32.4667 72.096C32.4347 72.176 32.4027 72.328 32.3707 72.552C32.3387 72.76 32.2987 72.976 32.2507 73.2C32.2027 73.424 32.1387 73.6 32.0587 73.728C31.9147 74.384 31.6587 74.768 31.2907 74.88C30.9387 74.992 30.6267 74.896 30.3547 74.592ZM32.9467 64.968C32.7707 64.84 32.6347 64.688 32.5387 64.512C32.4587 64.32 32.4107 64.152 32.3947 64.008C32.3947 63.864 32.4107 63.776 32.4427 63.744C32.6027 63.568 32.7387 63.336 32.8507 63.048C32.9787 62.76 33.1147 62.496 33.2587 62.256C33.2907 62.208 33.3307 62.144 33.3787 62.064C33.4427 61.968 33.5067 61.912 33.5707 61.896C33.7627 61.768 34.0267 61.776 34.3627 61.92C34.7147 62.064 34.9707 62.264 35.1307 62.52C35.2747 62.824 35.3147 63.136 35.2507 63.456C35.2027 63.776 35.0347 64.112 34.7467 64.464C34.5067 64.784 34.2027 64.992 33.8347 65.088C33.4667 65.168 33.1707 65.128 32.9467 64.968Z" fill="white"/>
<path d="M27.8022 74.424C27.6902 74.392 27.5142 74.288 27.2742 74.112C27.0342 73.936 26.8182 73.672 26.6262 73.32C26.4502 72.968 26.3702 72.512 26.3862 71.952C26.4022 71.472 26.4342 71.136 26.4822 70.944C26.5462 70.736 26.5222 70.624 26.4102 70.608C26.3302 70.592 26.1702 70.664 25.9302 70.824C25.6902 70.984 25.3782 71.24 24.9942 71.592C24.6102 71.944 24.1462 72.408 23.6022 72.984C23.4102 73.144 23.1942 73.344 22.9542 73.584C22.7302 73.808 22.4982 73.976 22.2582 74.088C22.0342 74.2 21.8342 74.176 21.6582 74.016L21.4182 73.8C21.3062 73.704 21.2102 73.576 21.1302 73.416C21.0502 73.256 21.0262 73.12 21.0582 73.008L21.7302 71.136C21.9222 70.72 22.0502 70.416 22.1142 70.224C22.1942 70.032 22.2262 69.912 22.2102 69.864C22.2102 69.816 22.1702 69.8 22.0902 69.816C21.9942 69.832 21.8582 69.92 21.6822 70.08C21.5062 70.224 21.3862 70.344 21.3222 70.44C21.2582 70.44 21.1702 70.504 21.0582 70.632C20.9622 70.76 20.8662 70.872 20.7702 70.968C20.6742 71.064 20.5062 71.248 20.2662 71.52C20.0262 71.776 19.7702 72.048 19.4982 72.336C19.2902 72.528 19.0502 72.784 18.7782 73.104C18.5062 73.424 18.2662 73.712 18.0582 73.968C17.8502 74.224 17.7222 74.352 17.6742 74.352C17.3862 74.336 17.1222 74.24 16.8822 74.064C16.6582 73.888 16.5062 73.672 16.4262 73.416C16.3302 73.24 16.3222 72.92 16.4022 72.456C16.4822 71.976 16.6342 71.216 16.8582 70.176C16.9222 69.936 16.9782 69.728 17.0262 69.552C17.0902 69.376 17.1542 69.2 17.2182 69.024C17.2822 68.848 17.3542 68.648 17.4342 68.424C17.5302 68.2 17.6502 67.928 17.7942 67.608C17.8742 67.384 17.9062 67.176 17.8902 66.984C17.8742 66.776 17.8582 66.608 17.8422 66.48C17.8422 66.24 17.9142 66.048 18.0582 65.904C18.2182 65.76 18.3942 65.664 18.5862 65.616C18.7782 65.552 18.9302 65.536 19.0422 65.568C19.4902 65.616 19.7942 65.776 19.9542 66.048C20.1142 66.32 20.2022 66.584 20.2182 66.84C20.2342 67.08 20.2022 67.296 20.1222 67.488C20.0422 67.68 19.9782 67.84 19.9302 67.968L19.6662 68.616C19.5062 68.984 19.3862 69.256 19.3062 69.432C19.2422 69.592 19.2022 69.704 19.1862 69.768C19.1862 69.816 19.1862 69.864 19.1862 69.912C19.2022 69.96 19.2742 69.936 19.4022 69.84C19.5302 69.744 19.6822 69.616 19.8582 69.456C20.0502 69.28 20.2262 69.128 20.3862 69C20.6742 68.76 20.9782 68.52 21.2982 68.28C21.6342 68.024 21.9622 67.8 22.2822 67.608C22.6022 67.416 22.8662 67.288 23.0742 67.224C23.3462 67.272 23.5942 67.408 23.8182 67.632C24.0582 67.856 24.2102 68.048 24.2742 68.208C24.3542 68.448 24.3622 68.664 24.2982 68.856C24.2502 69.048 24.2102 69.224 24.1782 69.384C24.1622 69.448 24.1302 69.568 24.0822 69.744C24.0342 69.92 23.9862 70.088 23.9382 70.248C23.8902 70.392 23.8662 70.464 23.8662 70.464C23.8662 70.464 23.9142 70.416 24.0102 70.32C24.1062 70.224 24.2342 70.112 24.3942 69.984C24.5542 69.84 24.7142 69.712 24.8742 69.6C25.6742 68.992 26.3062 68.608 26.7702 68.448C27.2502 68.272 27.6582 68.408 27.9942 68.856C28.1862 69.032 28.3062 69.272 28.3542 69.576C28.4182 69.88 28.4502 70.288 28.4502 70.8C28.4662 71.008 28.4822 71.24 28.4982 71.496C28.5302 71.752 28.5622 71.976 28.5942 72.168C28.6422 72.36 28.6822 72.48 28.7142 72.528C28.7622 72.592 28.8502 72.656 28.9782 72.72C29.1062 72.768 29.2262 72.808 29.3382 72.84C29.5622 72.952 29.6822 73.16 29.6982 73.464C29.7302 73.752 29.6182 73.976 29.3622 74.136C29.1222 74.28 28.8662 74.368 28.5942 74.4C28.3382 74.432 28.0742 74.44 27.8022 74.424Z" fill="white"/>
<path d="M2.1041 74.6159C1.8161 74.4079 1.6721 74.2319 1.6721 74.0879C1.6081 73.9919 1.5361 73.9439 1.4561 73.9439C1.4081 73.9599 1.3601 73.8799 1.3121 73.7039C1.2801 73.5279 1.2481 73.3359 1.2161 73.1279C1.2001 72.9199 1.2001 72.7839 1.2161 72.7199C1.2801 72.5919 1.4001 72.4959 1.5761 72.4319C1.7681 72.3679 1.9521 72.3439 2.1281 72.3599C2.3201 72.3599 2.4241 72.4239 2.4401 72.5519C2.4721 72.6799 2.5921 72.7839 2.8001 72.8639C3.0241 72.9439 3.3121 72.9759 3.6641 72.9599C4.1121 72.9439 4.5201 72.8719 4.8881 72.7439C5.2721 72.6159 5.6161 72.4319 5.9201 72.1919C6.2401 71.9519 6.5281 71.6639 6.7841 71.3279C6.8961 71.1039 7.0001 70.8079 7.0961 70.4399C7.1921 70.0719 7.2561 69.7439 7.2881 69.4559C7.3201 69.1679 7.2961 69.0239 7.2161 69.0239C7.2161 69.0239 7.2001 68.9679 7.1681 68.8559C7.1521 68.7439 7.1201 68.6239 7.0721 68.4959C6.9921 68.2559 6.8081 68.0159 6.5201 67.7759C6.2321 67.5199 5.9521 67.3359 5.6801 67.2239C5.5681 67.1919 5.3361 67.1919 4.9841 67.2239C4.6321 67.2559 4.3361 67.2879 4.0961 67.3199C3.8401 67.3359 3.6881 67.3359 3.6401 67.3199C3.6081 67.2879 3.5921 67.2719 3.5921 67.2719C3.5121 67.2559 3.3761 67.1759 3.1841 67.0319C3.0081 66.8879 2.8401 66.7359 2.6801 66.5759C2.5361 66.4159 2.4641 66.2959 2.4641 66.2159C2.4961 66.1039 2.5841 65.9119 2.7281 65.6399C2.8721 65.3679 3.0481 65.0719 3.2561 64.7519C3.4801 64.4319 3.7041 64.1199 3.9281 63.8159C4.1521 63.5119 4.3601 63.2639 4.5521 63.0719C5.0321 62.5439 5.6081 62.1519 6.2801 61.8959C6.9521 61.6239 7.6161 61.5039 8.2721 61.5359C8.7361 61.5519 9.0801 61.6159 9.3041 61.7279C9.5441 61.8239 9.7601 61.9999 9.9521 62.2559C10.0801 62.4799 10.1281 62.7119 10.0961 62.9519C10.0641 63.1919 9.9841 63.3759 9.8561 63.5039C9.7281 63.6319 9.5681 63.6479 9.3761 63.5519C9.1521 63.4079 8.8481 63.3519 8.4641 63.3839C8.0801 63.4159 7.6721 63.4959 7.2401 63.6239C6.9041 63.7519 6.6321 63.8639 6.4241 63.9599C6.2161 64.0399 6.0721 64.1679 5.9921 64.3439C5.9281 64.3919 5.8801 64.4399 5.8481 64.4879C5.8321 64.5359 5.7921 64.5519 5.7281 64.5359C5.7281 64.5359 5.7041 64.5679 5.6561 64.6319C5.6081 64.6799 5.5841 64.7359 5.5841 64.7999C5.5041 64.8959 5.4481 64.9679 5.4161 65.0159C5.4001 65.0479 5.3601 65.0319 5.2961 64.9679C5.2961 64.9679 5.2961 64.9919 5.2961 65.0399C5.2961 65.0879 5.2881 65.1439 5.2721 65.2079C5.2561 65.3199 5.2881 65.3999 5.3681 65.4479C5.4641 65.4799 5.6641 65.5119 5.9681 65.5439C6.3681 65.6079 6.6641 65.6719 6.8561 65.7359C7.0641 65.7839 7.3681 65.9279 7.7681 66.1679C8.2161 66.4239 8.5441 66.8079 8.7521 67.3199C8.9761 67.8159 9.1041 68.3679 9.1361 68.9759C9.1841 69.5679 9.1681 70.1359 9.0881 70.6799C9.0401 71.0319 8.9921 71.3039 8.9441 71.4959C8.8961 71.6879 8.7601 71.9519 8.5361 72.2879C8.1681 72.7999 7.6961 73.2559 7.1201 73.6559C6.5441 74.0399 5.9361 74.3439 5.2961 74.5679C4.6561 74.7919 4.0481 74.9199 3.4721 74.9519C2.9121 74.9679 2.4561 74.8559 2.1041 74.6159Z" fill="white"/>
<path d="M75.5254 53.1679C74.6774 53.1679 74.0534 52.8959 73.6534 52.3519C73.5414 52.0959 73.4854 51.8399 73.4854 51.5839C73.5014 51.3119 73.5654 51.1199 73.6774 51.0079C73.7894 50.8799 73.9253 50.9039 74.0854 51.0799C74.2933 51.2079 74.5894 51.2719 74.9734 51.2719C75.1654 51.2719 75.3333 51.2719 75.4773 51.2719C75.6373 51.2559 75.8214 51.2399 76.0294 51.2239C76.3974 51.1919 76.6293 51.0799 76.7253 50.8879C76.8373 50.6959 76.8134 50.5359 76.6534 50.4079H76.6774C76.2454 50.2959 75.8213 50.1359 75.4053 49.9279C74.9893 49.7199 74.6374 49.4879 74.3493 49.2319C74.0613 48.9599 73.8934 48.7039 73.8454 48.4639C73.7174 47.9359 73.7494 47.3919 73.9414 46.8319C74.1334 46.2719 74.4133 45.7839 74.7813 45.3679C74.9253 45.2719 75.1254 45.1359 75.3814 44.9599C75.6374 44.7679 75.8213 44.6639 75.9333 44.6479V44.6719C76.2373 44.3519 76.5814 44.0959 76.9654 43.9039C77.3494 43.6959 77.7973 43.5039 78.3093 43.3279L78.6934 43.2799C78.8854 43.2479 79.0533 43.2319 79.1973 43.2319C79.1813 43.2319 79.2214 43.2479 79.3174 43.2799C79.4134 43.3119 79.4934 43.3359 79.5574 43.3519C79.6534 43.3999 79.7494 43.4239 79.8454 43.4239C80.0694 43.4559 80.2854 43.5759 80.4934 43.7839C80.7174 43.9759 80.8934 44.2079 81.0214 44.4799C81.1654 44.7359 81.2214 44.9759 81.1894 45.1999C81.1414 45.5679 81.0053 45.9359 80.7813 46.3039C80.5573 46.6559 80.3173 46.8559 80.0613 46.9039C80.0933 46.8879 80.0614 46.8559 79.9654 46.8079C79.8694 46.7599 79.7814 46.7119 79.7014 46.6639L79.6054 46.7119C79.6054 46.7119 79.5974 46.6879 79.5814 46.6399C79.5814 46.5919 79.5654 46.5359 79.5334 46.4719C79.4694 46.3599 79.4214 46.2399 79.3894 46.1119C79.3734 45.9839 79.3734 45.8399 79.3894 45.6799C79.4214 45.5039 79.4294 45.3999 79.4134 45.3679C79.3974 45.3359 79.3014 45.3119 79.1254 45.2959C78.9174 45.2479 78.6534 45.2719 78.3334 45.3679C78.0134 45.4479 77.7174 45.5919 77.4454 45.7999C77.1254 46.0079 76.8853 46.1759 76.7253 46.3039C76.5813 46.4319 76.4694 46.5599 76.3894 46.6879C76.3094 46.7999 76.2214 46.9679 76.1254 47.1919C76.0614 47.3039 76.0054 47.4079 75.9574 47.5039C75.9094 47.5839 75.8854 47.6639 75.8854 47.7439C75.8854 47.9039 76.0214 48.0719 76.2934 48.2479C76.5654 48.4079 76.9733 48.5999 77.5173 48.8239C77.9493 48.9999 78.2294 49.2399 78.3574 49.5439C78.5014 49.8479 78.6293 50.1359 78.7413 50.4079C78.7733 50.4719 78.8053 50.5919 78.8373 50.7679C78.8853 50.9279 78.8934 51.0239 78.8614 51.0559C78.8934 51.0879 78.9094 51.1199 78.9094 51.1519V51.1279C79.0374 51.3679 79.0133 51.6239 78.8373 51.8959C78.6773 52.1519 78.4214 52.3919 78.0694 52.6159C77.7174 52.8239 77.3174 52.9759 76.8694 53.0719H76.8933C76.6533 53.1039 76.4134 53.1279 76.1734 53.1439C75.9494 53.1599 75.7334 53.1679 75.5254 53.1679Z" fill="white"/>
<path d="M66.7424 52.7839C66.1184 52.5279 65.6864 52.1119 65.4464 51.5359C65.2064 50.9599 65.1424 50.1919 65.2544 49.2319C65.2864 48.7359 65.2704 48.4079 65.2064 48.2479C65.1424 48.0719 65.0224 47.9039 64.8464 47.7439C64.7984 47.6799 64.6864 47.5759 64.5104 47.4319C64.3344 47.2719 64.2544 47.1519 64.2704 47.0719C64.2544 46.9599 64.2784 46.8239 64.3424 46.6639C64.4064 46.4879 64.4624 46.3919 64.5104 46.3759C64.6224 46.3279 64.7344 46.2719 64.8464 46.2079C64.9744 46.1439 65.0704 46.1279 65.1344 46.1599C65.1984 46.1599 65.2944 46.1999 65.4224 46.2799C65.5664 46.3599 65.6384 46.4319 65.6384 46.4959C65.7024 46.6079 65.7984 46.5599 65.9264 46.3519C66.0704 46.1439 66.2224 45.8799 66.3824 45.5599C66.5424 45.3039 66.7424 45.0639 66.9824 44.8399C67.2224 44.6159 67.4624 44.4159 67.7024 44.2399C67.9584 44.0479 68.1744 43.9039 68.3504 43.8079C68.4304 43.7759 68.5824 43.7279 68.8064 43.6639C69.0464 43.5999 69.2944 43.5519 69.5504 43.5199C69.8064 43.4719 69.9984 43.4559 70.1264 43.4719C70.4144 43.4879 70.7184 43.6079 71.0384 43.8319C71.3584 44.0559 71.6064 44.2639 71.7824 44.4559C71.9904 44.5999 72.1264 44.8239 72.1904 45.1279C72.2704 45.4159 72.3024 45.7199 72.2864 46.0399C72.2704 46.3599 72.2064 46.6319 72.0944 46.8559C72.0464 47.0159 71.8784 47.2399 71.5904 47.5279C71.3024 47.8159 70.9824 48.0959 70.6304 48.3679C70.2944 48.6239 70.0064 48.7999 69.7664 48.8959C69.5584 48.9439 69.3104 48.9839 69.0224 49.0159C68.7344 49.0319 68.4624 49.0319 68.2064 49.0159C67.9664 48.9839 67.7984 48.9439 67.7024 48.8959C67.5904 48.8319 67.4944 48.8559 67.4144 48.9679C67.3504 49.0639 67.2944 49.3359 67.2464 49.7839C67.2304 49.9599 67.2304 50.1119 67.2464 50.2399C67.2784 50.3679 67.3104 50.4639 67.3424 50.5279C67.4544 50.7199 67.5664 50.8639 67.6784 50.9599C67.7904 51.0399 67.9984 51.0639 68.3024 51.0319C68.6064 50.9999 68.9104 50.8159 69.2144 50.4799C69.5344 50.1279 69.8224 49.8479 70.0784 49.6399C70.1424 49.5279 70.2784 49.4559 70.4864 49.4239C70.7104 49.3759 70.9744 49.3919 71.2784 49.4719C71.4544 49.5839 71.5344 49.7599 71.5184 49.9999C71.5184 50.2399 71.3904 50.5919 71.1344 51.0559C71.0864 51.1679 70.9504 51.3359 70.7264 51.5599C70.5184 51.7679 70.2864 51.9839 70.0304 52.2079C69.7904 52.4159 69.5904 52.5679 69.4304 52.6639C68.9504 52.9199 68.4784 53.0399 68.0144 53.0239C67.5504 53.0079 67.1264 52.9279 66.7424 52.7839ZM68.5184 47.3839C68.7584 47.3199 68.9584 47.2559 69.1184 47.1919C69.2944 47.1279 69.4624 47.0239 69.6224 46.8799C69.7824 46.7359 69.9664 46.5199 70.1744 46.2319C70.2384 46.0559 70.2704 45.9039 70.2704 45.7759C70.2864 45.6479 70.2784 45.5679 70.2464 45.5359C70.1184 45.4079 69.9744 45.3679 69.8144 45.4159C69.6704 45.4479 69.5104 45.5279 69.3344 45.6559C69.2224 45.7039 69.0624 45.8079 68.8544 45.9679C68.6624 46.1119 68.4704 46.2799 68.2784 46.4719C68.1024 46.6479 67.9584 46.8159 67.8464 46.9759C67.7504 47.1199 67.7344 47.2079 67.7984 47.2399C67.7664 47.3039 67.8544 47.3439 68.0624 47.3599C68.2864 47.3759 68.4384 47.3839 68.5184 47.3839Z" fill="white"/>
<path d="M56.7815 52.832C56.5415 52.752 56.3255 52.624 56.1335 52.448C55.9575 52.272 55.8855 51.984 55.9175 51.584C55.9495 51.344 55.9975 51.096 56.0615 50.84C56.1255 50.568 56.2055 50.304 56.3015 50.048C56.3495 49.76 56.4055 49.472 56.4695 49.184C56.5495 48.896 56.6775 48.624 56.8535 48.368C57.0615 47.776 57.2775 47.192 57.5015 46.616C57.7255 46.024 57.9175 45.408 58.0775 44.768C58.3175 44.192 58.5335 43.68 58.7255 43.232C58.9335 42.784 59.1815 42.208 59.4695 41.504C59.6295 41.136 59.7655 40.728 59.8775 40.28C60.0055 39.816 60.1975 39.408 60.4535 39.056C60.5655 38.912 60.6455 38.792 60.6935 38.696C60.7575 38.584 60.8215 38.48 60.8855 38.384C60.9975 38.16 61.1655 38.056 61.3895 38.072C61.6295 38.088 61.7895 38.152 61.8695 38.264C62.1415 38.376 62.3335 38.584 62.4455 38.888C62.5575 39.176 62.5975 39.384 62.5655 39.512C62.5655 39.688 62.5015 39.88 62.3735 40.088C62.3095 40.152 62.2455 40.248 62.1815 40.376C62.1175 40.488 62.0215 40.64 61.8935 40.832C61.8295 41.04 61.7655 41.248 61.7015 41.456C61.6375 41.664 61.5655 41.856 61.4855 42.032C61.4055 42.208 61.3175 42.384 61.2215 42.56C61.1255 42.736 61.0615 42.88 61.0295 42.992C60.8855 43.36 60.7255 43.72 60.5495 44.072C60.3895 44.408 60.2455 44.768 60.1175 45.152C59.9895 45.52 59.8535 45.912 59.7095 46.328C59.5655 46.728 59.3815 47.112 59.1575 47.48C59.0455 47.64 58.9815 47.856 58.9655 48.128C58.9655 48.4 58.9335 48.664 58.8695 48.92C58.7575 49.208 58.6535 49.472 58.5575 49.712C58.4775 49.952 58.4375 50.104 58.4375 50.168C58.3255 50.52 58.2375 50.872 58.1735 51.224C58.1095 51.56 58.0055 51.856 57.8615 52.112C57.8615 52.496 57.7575 52.736 57.5495 52.832C57.3415 52.928 57.0855 52.928 56.7815 52.832ZM62.2775 53.048C62.0215 53.016 61.8295 52.968 61.7015 52.904C61.5735 52.824 61.3335 52.656 60.9815 52.4C60.7895 52.208 60.5495 51.912 60.2615 51.512C59.9735 51.112 59.6855 50.688 59.3975 50.24C59.1095 49.776 58.8535 49.384 58.6295 49.064L59.9495 47.384C60.1575 47.64 60.3255 47.88 60.4535 48.104C60.5815 48.328 60.6855 48.48 60.7655 48.56C61.1335 49.104 61.4215 49.544 61.6295 49.88C61.8375 50.216 62.0135 50.488 62.1575 50.696C62.3175 50.904 62.4935 51.088 62.6855 51.248C62.8775 51.408 63.1255 51.576 63.4295 51.752C63.4775 51.784 63.5255 51.864 63.5735 51.992C63.6215 52.104 63.6375 52.224 63.6215 52.352C63.5895 52.544 63.4695 52.704 63.2615 52.832C63.0695 52.944 62.7415 53.016 62.2775 53.048ZM58.7975 48.608C58.7015 48.336 58.6775 48.032 58.7255 47.696C58.7895 47.344 58.9255 47.112 59.1335 47C59.1975 46.888 59.2615 46.816 59.3255 46.784C59.4055 46.736 59.4535 46.68 59.4695 46.616C59.5015 46.552 59.5815 46.464 59.7095 46.352C59.8535 46.24 59.9815 46.136 60.0935 46.04C60.3495 45.88 60.6295 45.688 60.9335 45.464C61.2535 45.224 61.5575 44.984 61.8455 44.744C62.1495 44.504 62.3975 44.296 62.5895 44.12C62.7975 43.944 62.9255 43.832 62.9735 43.784C63.0215 43.72 63.1175 43.68 63.2615 43.664C63.4215 43.648 63.5735 43.672 63.7175 43.736C63.9095 43.784 64.0615 43.888 64.1735 44.048C64.3015 44.208 64.3655 44.432 64.3655 44.72C64.4135 44.896 64.3095 45.112 64.0535 45.368C63.8135 45.608 63.5095 45.848 63.1415 46.088C63.0135 46.168 62.8375 46.288 62.6135 46.448C62.4055 46.608 62.2215 46.76 62.0615 46.904C61.9495 46.968 61.7815 47.08 61.5575 47.24C61.3495 47.384 61.1655 47.528 61.0055 47.672C60.8775 47.752 60.7255 47.896 60.5495 48.104C60.3895 48.296 60.2055 48.44 59.9975 48.536C59.4855 49.016 59.1735 49.248 59.0615 49.232C58.9655 49.216 58.8775 49.008 58.7975 48.608Z" fill="white"/>
<path d="M48.4495 52.664C48.3215 52.696 48.1535 52.712 47.9455 52.712C47.7375 52.696 47.5535 52.672 47.3935 52.64C47.2495 52.592 47.1775 52.544 47.1775 52.496C47.1775 52.416 47.1375 52.376 47.0575 52.376C47.0575 52.376 46.9695 52.312 46.7935 52.184C46.6175 52.04 46.4575 51.936 46.3135 51.872C46.1695 51.648 46.0735 51.392 46.0255 51.104C45.9935 50.8 46.0895 50.272 46.3135 49.52C46.3295 49.008 46.4735 48.472 46.7455 47.912C47.0175 47.336 47.3615 46.776 47.7775 46.232C48.1935 45.688 48.6255 45.208 49.0735 44.792C49.5215 44.36 49.9215 44.04 50.2735 43.832C50.4975 43.608 50.7935 43.488 51.1615 43.472C51.5455 43.456 51.8815 43.528 52.1695 43.688C52.3295 43.768 52.5055 43.928 52.6975 44.168C52.8895 44.408 53.0735 44.664 53.2495 44.936C53.4255 45.192 53.5615 45.424 53.6575 45.632C53.7055 45.808 53.7455 45.968 53.7775 46.112C53.8255 46.24 53.8575 46.4 53.8735 46.592C53.8895 46.784 53.8735 47.072 53.8255 47.456C53.7455 47.744 53.6735 48.04 53.6095 48.344C53.5615 48.632 53.5375 48.928 53.5375 49.232C53.5055 49.536 53.5375 49.752 53.6335 49.88C53.7455 50.008 53.9055 50.016 54.1135 49.904C54.3055 49.808 54.5055 49.8 54.7135 49.88C54.9215 49.944 55.0655 50.072 55.1455 50.264C55.2415 50.44 55.2175 50.672 55.0735 50.96C54.9775 51.168 54.8255 51.368 54.6175 51.56C54.4095 51.752 54.1775 51.912 53.9215 52.04C53.6655 52.152 53.4175 52.208 53.1775 52.208C53.0015 52.208 52.8255 52.144 52.6495 52.016C52.4735 51.872 52.3135 51.68 52.1695 51.44C52.0255 51.2 51.9055 50.936 51.8095 50.648L51.6655 50.096L50.8015 50.888C50.5935 51.112 50.3855 51.32 50.1775 51.512C49.9855 51.688 49.8655 51.816 49.8175 51.896C49.7375 52.04 49.5775 52.168 49.3375 52.28C49.1135 52.392 48.8175 52.52 48.4495 52.664ZM49.0975 50.36C49.3695 50.2 49.6015 50.008 49.7935 49.784C50.0015 49.56 50.2015 49.312 50.3935 49.04C50.5855 48.752 50.7935 48.448 51.0175 48.128C51.2895 47.76 51.4815 47.464 51.5935 47.24C51.7215 47.016 51.8175 46.776 51.8815 46.52C51.8175 46.344 51.7295 46.16 51.6175 45.968C51.5055 45.76 51.3935 45.648 51.2815 45.632C51.0575 45.632 50.7855 45.768 50.4655 46.04C50.1615 46.312 49.8255 46.704 49.4575 47.216C49.3935 47.296 49.3135 47.424 49.2175 47.6C49.1215 47.776 49.0255 47.944 48.9295 48.104C48.8495 48.248 48.7935 48.344 48.7615 48.392C48.7135 48.456 48.6415 48.608 48.5455 48.848C48.4655 49.072 48.3935 49.304 48.3295 49.544C48.2655 49.768 48.2335 49.928 48.2335 50.024C48.2335 50.12 48.2415 50.224 48.2575 50.336C48.2895 50.448 48.3695 50.52 48.4975 50.552C48.6255 50.584 48.8255 50.52 49.0975 50.36Z" fill="white"/>
<path d="M40.0722 53.024C39.8962 52.992 39.7042 52.888 39.4962 52.712C39.2882 52.52 39.0962 52.312 38.9202 52.088C38.7602 51.848 38.6562 51.648 38.6082 51.488C38.6082 51.456 38.5842 51.416 38.5362 51.368C38.5042 51.32 38.4882 51.296 38.4882 51.296C38.4242 51.248 38.3842 51.04 38.3682 50.672C38.3682 50.288 38.3922 49.864 38.4402 49.4C38.4882 48.936 38.5442 48.568 38.6082 48.296C38.6882 48.04 38.8082 47.696 38.9682 47.264C39.1282 46.816 39.2642 46.416 39.3762 46.064L40.0242 44.672L39.0642 44.408C38.9522 44.376 38.8562 44.312 38.7762 44.216C38.7122 44.12 38.6802 44.04 38.6802 43.976C38.6802 43.848 38.7522 43.664 38.8962 43.424C39.0402 43.184 39.1442 43.064 39.2082 43.064C39.2882 43.08 39.4322 43.088 39.6402 43.088C39.8642 43.088 40.0802 43.08 40.2882 43.064C40.4962 43.048 40.6242 43.032 40.6722 43.016C40.7362 42.984 40.8002 42.944 40.8642 42.896C40.9282 42.832 40.9762 42.744 41.0082 42.632C41.0882 42.456 41.1602 42.32 41.2242 42.224C41.2882 42.128 41.3762 41.984 41.4882 41.792C41.6002 41.584 41.6882 41.408 41.7522 41.264C41.8322 41.12 41.9522 40.92 42.1122 40.664C42.1922 40.552 42.2802 40.416 42.3762 40.256C42.4722 40.096 42.5922 39.96 42.7362 39.848C42.8802 39.72 43.1122 39.632 43.4322 39.584C43.7682 39.52 44.0562 39.592 44.2962 39.8C44.4242 39.96 44.4962 40.112 44.5122 40.256C44.5282 40.4 44.4642 40.584 44.3202 40.808C44.1922 41.08 44.0402 41.328 43.8642 41.552C43.7042 41.76 43.5522 42 43.4082 42.272C43.1522 42.624 43.1042 42.824 43.2642 42.872C43.4242 42.92 43.8722 42.888 44.6082 42.776C45.0722 42.696 45.4082 42.744 45.6162 42.92C45.8242 43.096 45.9442 43.32 45.9762 43.592C46.0242 43.976 45.9842 44.208 45.8562 44.288C45.7282 44.368 45.3602 44.408 44.7522 44.408C44.3682 44.472 44.0402 44.512 43.7682 44.528C43.4962 44.528 43.2962 44.528 43.1682 44.528C42.9602 44.544 42.8242 44.552 42.7602 44.552C42.6962 44.552 42.6002 44.568 42.4722 44.6C42.3442 44.632 42.2482 44.688 42.1842 44.768C42.1362 44.832 42.0802 44.928 42.0162 45.056C41.9522 45.12 41.8562 45.288 41.7282 45.56C41.6002 45.832 41.4402 46.128 41.2482 46.448C41.0242 47.12 40.8322 47.768 40.6722 48.392C40.5282 49 40.4002 49.608 40.2882 50.216C40.2402 50.52 40.2482 50.744 40.3122 50.888C40.3922 51.016 40.6002 51.096 40.9362 51.128C41.1122 51.144 41.3682 51.144 41.7042 51.128C42.0402 51.096 42.3202 51.048 42.5442 50.984C42.7202 50.904 42.9042 50.824 43.0962 50.744C43.2882 50.648 43.4642 50.552 43.6242 50.456C43.7682 50.376 43.9122 50.296 44.0562 50.216C44.2002 50.12 44.2722 50.072 44.2722 50.072C44.3522 49.944 44.4642 49.968 44.6082 50.144C44.7682 50.304 44.8802 50.48 44.9442 50.672C44.9442 50.864 44.9042 51.096 44.8242 51.368C44.7442 51.624 44.4482 51.896 43.9362 52.184C43.2162 52.632 42.4962 52.904 41.7762 53C41.0562 53.096 40.4882 53.104 40.0722 53.024Z" fill="white"/>
<path d="M25.7207 58.712C25.6567 58.728 25.5607 58.704 25.4327 58.64C25.3207 58.576 25.2247 58.464 25.1447 58.304C25.0647 58.144 25.0407 57.936 25.0727 57.68C25.0087 57.456 25.0167 57.176 25.0967 56.84C25.1927 56.52 25.3927 56.04 25.6967 55.4C25.8567 55.144 26.0007 54.84 26.1287 54.488C26.2727 54.136 26.4327 53.784 26.6087 53.432C26.6887 53.288 26.8247 53.04 27.0167 52.688C27.2247 52.336 27.4487 51.92 27.6887 51.44C27.9447 50.944 28.1767 50.432 28.3847 49.904C27.9687 50.336 27.6087 50.744 27.3047 51.128C27.0167 51.496 26.7527 51.792 26.5127 52.016C26.2887 52.224 26.0487 52.32 25.7927 52.304C25.5847 52.256 25.3367 52.12 25.0487 51.896C24.7607 51.672 24.5767 51.424 24.4967 51.152C24.4327 50.8 24.4087 50.352 24.4247 49.808C24.4567 49.264 24.5607 48.44 24.7367 47.336C24.8647 46.792 24.9207 46.376 24.9047 46.088C24.9047 45.784 24.8647 45.56 24.7847 45.416C24.7047 45.272 24.6007 45.144 24.4727 45.032C24.2647 44.84 24.2487 44.632 24.4247 44.408C24.6007 44.184 24.8007 44.016 25.0247 43.904C25.3607 43.824 25.6247 43.808 25.8167 43.856C26.0247 43.888 26.2327 44.024 26.4407 44.264C26.5687 44.472 26.6967 44.696 26.8247 44.936C26.9527 45.176 27.0167 45.52 27.0167 45.968C27.0167 46.16 27.0087 46.376 26.9927 46.616C26.9767 46.84 26.9607 47.048 26.9447 47.24C26.9287 47.432 26.9127 47.584 26.8967 47.696C26.7367 48.288 26.5927 48.8 26.4647 49.232C26.3367 49.664 26.3127 49.88 26.3927 49.88C26.7127 49.624 26.9847 49.376 27.2087 49.136C27.4487 48.896 27.7047 48.608 27.9767 48.272C28.2487 47.936 28.5847 47.496 28.9847 46.952C29.1287 46.68 29.2727 46.416 29.4167 46.16C29.5607 45.904 29.6807 45.64 29.7767 45.368C29.8727 45.16 30.0007 44.944 30.1607 44.72C30.3207 44.48 30.4327 44.352 30.4967 44.336C30.5767 44.304 30.6887 44.312 30.8327 44.36C30.9767 44.408 31.1127 44.464 31.2407 44.528C31.3847 44.576 31.4567 44.616 31.4567 44.648C31.4727 44.664 31.5527 44.68 31.6967 44.696C31.8407 44.712 31.9847 44.728 32.1287 44.744C32.2727 44.744 32.3447 44.768 32.3447 44.816C32.3447 44.848 32.2967 44.968 32.2007 45.176C32.1207 45.384 32.0247 45.616 31.9127 45.872C31.8007 46.128 31.6967 46.36 31.6007 46.568C31.5207 46.76 31.4887 46.872 31.5047 46.904C31.5367 46.936 31.5127 47.056 31.4327 47.264C31.3527 47.456 31.2567 47.672 31.1447 47.912C31.0487 48.152 30.9607 48.368 30.8807 48.56C30.7207 49.088 30.5367 49.616 30.3287 50.144C30.1207 50.656 29.8727 51.168 29.5847 51.68C29.4887 51.872 29.3447 52.168 29.1527 52.568C28.9767 52.968 28.8007 53.36 28.6247 53.744C28.4647 54.144 28.3367 54.448 28.2407 54.656C28.1767 54.784 28.0807 54.984 27.9527 55.256C27.8407 55.544 27.7127 55.856 27.5687 56.192C27.4407 56.528 27.3127 56.84 27.1847 57.128C27.0567 57.432 26.9607 57.664 26.8967 57.824C26.8647 58.128 26.7927 58.352 26.6807 58.496C26.5367 58.64 26.3367 58.712 26.0807 58.712C25.8407 58.712 25.7207 58.712 25.7207 58.712Z" fill="white"/>
<path d="M20.7349 52.424C20.5749 52.328 20.3989 52.192 20.2069 52.016C20.0149 51.824 19.9189 51.64 19.9189 51.464C19.9189 51.224 19.9509 50.928 20.0149 50.576C20.0789 50.208 20.1429 49.896 20.2069 49.64C20.2389 49.352 20.2789 49.064 20.3269 48.776C20.3909 48.472 20.5029 48.192 20.6629 47.936C20.8389 47.328 21.0229 46.728 21.2149 46.136C21.4069 45.528 21.5749 44.904 21.7189 44.264C21.9269 43.672 22.1109 43.152 22.2709 42.704C22.4469 42.24 22.6629 41.656 22.9189 40.952C23.0629 40.552 23.1829 40.128 23.2789 39.68C23.3909 39.216 23.5589 38.8 23.7829 38.432C23.8789 38.288 23.9509 38.168 23.9989 38.072C24.0629 37.96 24.1269 37.856 24.1909 37.76C24.2069 37.696 24.2869 37.64 24.4309 37.592C24.5909 37.544 24.7509 37.52 24.9109 37.52C25.0869 37.504 25.2069 37.536 25.2709 37.616C25.3189 37.6 25.3989 37.664 25.5109 37.808C25.6229 37.936 25.7269 38.088 25.8229 38.264C25.9349 38.424 25.9829 38.552 25.9669 38.648C25.9669 38.712 25.9509 38.8 25.9189 38.912C25.9029 39.024 25.8629 39.128 25.7989 39.224C25.7349 39.288 25.6709 39.384 25.6069 39.512C25.5589 39.624 25.4789 39.784 25.3669 39.992C25.3029 40.2 25.2469 40.416 25.1989 40.64C25.1509 40.848 25.0869 41.04 25.0069 41.216C24.9429 41.408 24.8629 41.592 24.7669 41.768C24.6869 41.944 24.6309 42.088 24.5989 42.2C24.4869 42.568 24.3509 42.928 24.1909 43.28C24.0469 43.632 23.9189 44.008 23.8069 44.408C23.6949 44.792 23.5829 45.192 23.4709 45.608C23.3589 46.008 23.1989 46.392 22.9909 46.76C22.8789 46.936 22.7989 47.16 22.7509 47.432C22.7029 47.704 22.6549 47.976 22.6069 48.248C22.5109 48.536 22.4229 48.808 22.3429 49.064C22.2789 49.304 22.2469 49.456 22.2469 49.52C22.1509 49.872 22.0789 50.224 22.0309 50.576C21.9989 50.912 21.9189 51.208 21.7909 51.464C21.7749 51.624 21.7189 51.8 21.6229 51.992C21.5269 52.184 21.3989 52.328 21.2389 52.424C21.0949 52.52 20.9269 52.52 20.7349 52.424Z" fill="white"/>
<path d="M17.3271 52.424C16.9751 52.392 16.6791 52.32 16.4391 52.208C16.2151 52.08 16.0311 51.832 15.8871 51.464C15.8231 51.208 15.7911 50.944 15.7911 50.672C15.8071 50.384 15.8311 50.112 15.8631 49.856C15.8951 49.584 15.9111 49.352 15.9111 49.16C15.9111 49.128 15.9111 49.064 15.9111 48.968C15.9111 48.872 15.9111 48.784 15.9111 48.704C15.8791 48.464 15.8151 48.32 15.7191 48.272C15.6391 48.208 15.4951 48.216 15.2871 48.296C14.9511 48.456 14.5831 48.672 14.1831 48.944C13.7991 49.2 13.3911 49.504 12.9591 49.856C12.5431 50.192 12.1111 50.552 11.6631 50.936C11.3111 51.32 11.0471 51.632 10.8711 51.872C10.7111 52.112 10.5431 52.232 10.3671 52.232C10.2391 52.296 10.1031 52.28 9.95905 52.184C9.81505 52.088 9.66306 51.976 9.50306 51.848C9.39106 51.72 9.25505 51.56 9.09505 51.368C8.95105 51.16 8.86305 51.024 8.83105 50.96C8.83105 50.704 8.84705 50.472 8.87906 50.264C8.92706 50.056 8.99106 49.84 9.07106 49.616C9.16706 49.392 9.27905 49.136 9.40705 48.848C9.47105 48.736 9.52706 48.624 9.57506 48.512C9.63906 48.384 9.71106 48.248 9.79106 48.104C9.85506 47.88 9.94305 47.624 10.0551 47.336C10.1831 47.048 10.3031 46.776 10.4151 46.52C10.5911 46.104 10.7271 45.744 10.8231 45.44C10.9191 45.136 10.9991 44.808 11.0631 44.456C11.0471 44.424 11.0551 44.376 11.0871 44.312C11.1191 44.248 11.1671 44.208 11.2311 44.192H11.2551H11.2791C11.3911 44.112 11.5991 44.104 11.9031 44.168C12.2231 44.216 12.4631 44.304 12.6231 44.432C12.9591 44.72 13.1191 45.096 13.1031 45.56C13.0871 46.024 12.8471 46.632 12.3831 47.384C12.2711 47.64 12.1511 47.88 12.0231 48.104C11.9111 48.312 11.8551 48.456 11.8551 48.536C11.8551 48.536 11.9191 48.488 12.0471 48.392C12.1751 48.296 12.3271 48.184 12.5031 48.056C12.6791 47.912 12.8311 47.8 12.9591 47.72C13.0391 47.64 13.2151 47.496 13.4871 47.288C13.7591 47.064 14.0551 46.832 14.3751 46.592C14.6951 46.352 14.9511 46.168 15.1431 46.04C15.3191 45.912 15.5431 45.784 15.8151 45.656C16.0871 45.512 16.2551 45.44 16.3191 45.44C16.4791 45.44 16.6711 45.496 16.8951 45.608C17.1351 45.72 17.3511 45.856 17.5431 46.016C17.7511 46.16 17.8711 46.296 17.9031 46.424C17.9031 46.488 17.8951 46.576 17.8791 46.688C17.8631 46.784 17.8551 46.872 17.8551 46.952C17.8391 47.208 17.8311 47.52 17.8311 47.888C17.8471 48.24 17.8551 48.6 17.8551 48.968C17.8551 49.32 17.8231 49.64 17.7591 49.928C17.7591 49.928 17.7671 49.944 17.7831 49.976C17.7991 49.992 17.8151 50.024 17.8311 50.072C17.8151 50.088 17.8071 50.12 17.8071 50.168C17.8231 50.2 17.8311 50.216 17.8311 50.216C17.8631 50.328 17.8951 50.44 17.9271 50.552C17.9751 50.664 18.0311 50.792 18.0951 50.936C18.1591 51.064 18.2311 51.232 18.3111 51.44C18.2951 51.648 18.1751 51.856 17.9511 52.064C17.7431 52.256 17.5351 52.376 17.3271 52.424Z" fill="white"/>
<path d="M2.03179 52.832C1.82378 52.832 1.65578 52.792 1.52778 52.712C1.41578 52.632 1.27178 52.52 1.09578 52.376C0.791785 52.056 0.543785 51.712 0.351785 51.344C0.175785 50.976 0.111785 50.656 0.159785 50.384C0.207784 50.256 0.223785 50.136 0.207785 50.024C0.207785 49.896 0.207785 49.832 0.207785 49.832C0.127785 49.752 0.103785 49.704 0.135785 49.688C0.167785 49.656 0.199785 49.608 0.231785 49.544C0.327785 49.544 0.359785 49.456 0.327784 49.28C0.295785 49.152 0.343785 48.88 0.471785 48.464C0.615784 48.032 0.807784 47.624 1.04778 47.24C1.14378 47.08 1.28778 46.872 1.47978 46.616C1.67178 46.344 1.87978 46.08 2.10378 45.824C2.34378 45.552 2.55978 45.336 2.75178 45.176C3.15178 44.84 3.51978 44.568 3.85578 44.36C4.20778 44.152 4.55978 44.008 4.91179 43.928C5.26378 43.848 5.62378 43.808 5.99178 43.808C6.37578 43.808 6.68779 43.936 6.92778 44.192C7.29578 44.352 7.55178 44.568 7.69578 44.84C7.85578 45.112 7.95978 45.464 8.00778 45.896C8.05578 46.376 8.00778 46.968 7.86378 47.672C7.71978 48.36 7.32779 49.16 6.68779 50.072C6.28779 50.648 5.89578 51.096 5.51179 51.416C5.12778 51.736 4.70378 52.032 4.23979 52.304C3.90378 52.528 3.54378 52.664 3.15978 52.712C2.77578 52.76 2.39979 52.8 2.03179 52.832ZM4.47978 49.904C4.83179 49.6 5.07979 49.264 5.22379 48.896C5.38379 48.528 5.55178 48.096 5.72779 47.6C5.79178 47.504 5.83178 47.344 5.84778 47.12C5.87979 46.896 5.88778 46.68 5.87178 46.472C5.85578 46.248 5.79979 46.12 5.70378 46.088C5.55978 45.976 5.41578 45.952 5.27178 46.016C5.12778 46.064 4.94378 46.168 4.71978 46.328C4.23978 46.728 3.79178 47.192 3.37578 47.72C2.97579 48.232 2.69578 48.864 2.53578 49.616C2.48778 50.016 2.52778 50.32 2.65578 50.528C2.79978 50.72 3.02378 50.776 3.32779 50.696C3.64778 50.6 4.03179 50.336 4.47978 49.904Z" fill="white"/>
<g clip-path="url(#clip0_899_32)">
<path d="M153.824 14.8568C152.252 13.1988 150.758 11.561 149.021 9.73519C150.393 9.12807 151.597 9.48002 152.414 10.1917C154.864 12.3266 157.294 14.5397 159.505 16.9472C160.776 18.3188 160.131 19.823 158.309 20.2308C155.277 20.9529 152.207 21.4984 149.116 22.1221C148.939 22.1599 148.712 22.2268 148.605 22.1575C148.156 21.9581 147.776 21.6515 147.347 21.3739C147.606 21.0231 147.75 20.4754 148.076 20.3505C149.2 19.8885 150.333 19.554 151.438 19.1702C152.039 18.9493 152.62 18.8067 153.266 18.0962C152.376 17.8249 151.457 17.5045 150.566 17.2333C131.923 12.4298 112.832 20.3326 102.854 36.8482C101.583 38.9847 100.575 41.231 99.4112 43.4369C98.9998 44.208 98.5595 44.9299 98.1481 45.7009C97.9421 45.6896 97.7565 45.6 97.5504 45.5887C97.4386 45.0587 97.1412 44.4391 97.3138 43.9406C97.7943 42.2686 98.2748 40.5965 98.9903 38.985C106.047 22.9277 122.897 12.5683 141.066 13.282C144.54 13.4255 147.979 14.186 151.4 14.6917C152.126 14.7951 152.781 15.0058 153.486 15.1874C153.614 15.1786 153.733 15.0423 153.824 14.8568Z" fill="white"/>
</g>
<defs>
<clipPath id="clip0_899_32">
<rect width="68" height="22" fill="white" transform="translate(160.777 18.9705) rotate(149.575)"/>
</clipPath>
</defs>
</svg>
