<svg width="149" height="87" viewBox="0 0 149 87" fill="none" xmlns="http://www.w3.org/2000/svg">
<path d="M89.5485 42.992C88.9725 43.104 88.4205 43.12 87.8925 43.04C87.3645 42.976 86.9245 42.84 86.5725 42.632C86.2045 42.424 85.9805 42.192 85.9005 41.936C85.8045 41.568 85.8525 41.296 86.0445 41.12C86.2365 40.944 86.4685 40.84 86.7405 40.808C86.9965 40.776 87.1645 40.808 87.2445 40.904C87.3725 40.984 87.5725 41.104 87.8445 41.264C88.1325 41.424 88.4845 41.464 88.9005 41.384C89.2685 41.304 89.5965 41.128 89.8845 40.856C90.1725 40.584 90.4285 40.296 90.6525 39.992C90.7805 39.8 90.9965 39.456 91.3005 38.96C91.6045 38.464 91.9165 37.92 92.2365 37.328C92.5725 36.72 92.8525 36.16 93.0765 35.648C93.1245 35.52 93.1805 35.368 93.2445 35.192C93.3085 35.016 93.3885 34.872 93.4845 34.76C93.5805 34.568 93.6605 34.392 93.7245 34.232C93.8045 34.056 93.8525 33.936 93.8685 33.872C93.8845 33.792 93.9565 33.632 94.0845 33.392C94.2125 33.152 94.3325 32.912 94.4445 32.672C94.5245 32.432 94.6445 32.08 94.8045 31.616C94.9645 31.152 95.1245 30.776 95.2845 30.488C95.4765 30.12 95.6285 29.824 95.7405 29.6C95.8685 29.36 96.0045 29.216 96.1485 29.168C96.2925 29.056 96.4285 29 96.5565 29C96.6845 29 96.8365 29.048 97.0125 29.144C97.2045 29.336 97.3565 29.528 97.4685 29.72C97.5965 29.896 97.6445 30.12 97.6125 30.392C97.5965 30.648 97.4685 31 97.2285 31.448C97.1005 31.832 96.9565 32.184 96.7965 32.504C96.6525 32.808 96.5405 33.008 96.4605 33.104C96.3805 33.296 96.2845 33.512 96.1725 33.752C96.0765 33.976 95.9885 34.184 95.9085 34.376C95.6205 35.016 95.3725 35.536 95.1645 35.936C94.9565 36.336 94.7725 36.704 94.6125 37.04C94.4525 37.376 94.2845 37.768 94.1085 38.216C93.7405 38.808 93.3805 39.368 93.0285 39.896C92.6925 40.44 92.3325 40.944 91.9485 41.408C91.7885 41.552 91.5565 41.736 91.2525 41.96C90.9645 42.2 90.6605 42.416 90.3405 42.608C90.0365 42.816 89.7725 42.944 89.5485 42.992ZM92.5485 37.568C92.3085 37.536 92.0445 37.376 91.7565 37.088C91.4845 36.8 91.2525 36.496 91.0605 36.176C90.8845 35.856 90.8125 35.632 90.8445 35.504C90.8445 35.424 90.8445 35.36 90.8445 35.312C90.8445 35.264 90.8445 35.24 90.8445 35.24C90.7485 35.24 90.6685 35.104 90.6045 34.832C90.5565 34.544 90.5165 34.184 90.4845 33.752C90.4685 33.32 90.4605 32.872 90.4605 32.408C90.4765 31.944 90.5005 31.52 90.5325 31.136C90.5965 30.864 90.6285 30.568 90.6285 30.248C90.6285 29.912 90.6365 29.648 90.6525 29.456C90.6365 29.2 90.6845 28.992 90.7965 28.832C90.9245 28.672 91.0205 28.568 91.0845 28.52C91.6765 28.264 92.1085 28.4 92.3805 28.928C92.6525 29.456 92.7485 30.296 92.6685 31.448C92.6365 32.088 92.6205 32.704 92.6205 33.296C92.6205 33.872 92.6765 34.368 92.7885 34.784C92.9005 35.2 93.0925 35.496 93.3645 35.672C93.4765 35.736 93.5165 35.872 93.4845 36.08C93.4525 36.288 93.3805 36.512 93.2685 36.752C93.1565 36.976 93.0285 37.176 92.8845 37.352C92.7565 37.512 92.6445 37.584 92.5485 37.568Z" fill="#1B1F20"/>
<path d="M84.2871 42.728C83.9991 42.872 83.6231 42.904 83.1591 42.824C82.7111 42.744 82.2631 42.584 81.8151 42.344C81.3831 42.12 81.0311 41.856 80.7591 41.552C80.6151 41.392 80.4871 41.2 80.3751 40.976C80.2631 40.752 80.1911 40.536 80.1591 40.328C80.1271 40.136 80.1671 40.008 80.2791 39.944C80.4231 39.848 80.5911 39.8 80.7831 39.8C80.9911 39.8 81.1671 39.824 81.3111 39.872C81.4711 39.92 81.5511 39.976 81.5511 40.04C81.7271 40.2 81.8951 40.336 82.0551 40.448C82.2311 40.576 82.3991 40.672 82.5591 40.736C82.7831 40.832 82.9831 40.848 83.1591 40.784C83.3511 40.736 83.5271 40.632 83.6871 40.472C83.8151 40.296 83.9271 40.072 84.0231 39.8C84.1351 39.544 84.2231 39.248 84.2871 38.912L84.3591 38.6C84.5351 37.8 84.7031 37.048 84.8631 36.344C85.0391 35.624 85.1831 35.104 85.2951 34.784C85.2631 34.784 85.2231 34.792 85.1751 34.808C85.1271 34.824 85.0791 34.848 85.0311 34.88C84.9351 34.928 84.8391 34.976 84.7431 35.024C84.6471 35.072 84.5511 35.12 84.4551 35.168C84.2471 35.28 84.0631 35.368 83.9031 35.432C83.7431 35.48 83.5991 35.52 83.4711 35.552C83.2631 35.616 83.1111 35.64 83.0151 35.624C82.9191 35.608 82.8391 35.6 82.7751 35.6C82.6151 35.6 82.4071 35.552 82.1511 35.456C81.8951 35.344 81.6791 35.208 81.5031 35.048C81.3591 34.904 81.2551 34.76 81.1911 34.616C81.1271 34.456 81.0871 34.288 81.0711 34.112C81.0551 33.936 81.0471 33.76 81.0471 33.584C81.0471 33.344 81.1751 32.92 81.4311 32.312C81.6871 31.688 82.0631 31.08 82.5591 30.488C82.8631 30.184 83.2631 29.88 83.7591 29.576C84.2551 29.272 84.7591 29.016 85.2711 28.808C85.7991 28.584 86.2311 28.472 86.5671 28.472C86.6311 28.472 86.7031 28.48 86.7831 28.496C86.8791 28.512 86.9671 28.552 87.0471 28.616C87.3191 28.68 87.5911 28.832 87.8631 29.072C88.1351 29.296 88.3751 29.592 88.5831 29.96C88.7111 30.216 88.8151 30.488 88.8951 30.776C88.9911 31.064 89.0391 31.368 89.0391 31.688C89.0391 31.944 88.9911 32.168 88.8951 32.36C88.8151 32.536 88.7351 32.64 88.6551 32.672C88.6231 32.704 88.5831 32.728 88.5351 32.744C88.4871 32.744 88.4311 32.752 88.3671 32.768C88.3351 32.768 88.2711 32.784 88.1751 32.816C88.0791 32.864 87.9831 32.952 87.8871 33.08C87.8071 33.192 87.7271 33.392 87.6471 33.68C87.6311 33.76 87.6151 33.84 87.5991 33.92C87.5831 34 87.5591 34.08 87.5271 34.16C87.5271 34.176 87.5031 34.216 87.4551 34.28C87.4231 34.328 87.3991 34.392 87.3831 34.472C87.3671 34.584 87.3351 34.68 87.2871 34.76C87.2551 34.824 87.2231 34.896 87.1911 34.976C87.1751 35.04 87.1671 35.096 87.1671 35.144C87.1671 35.176 87.1671 35.208 87.1671 35.24L87.0711 35.504C87.0231 35.664 86.9751 35.808 86.9271 35.936C86.8951 36.064 86.8791 36.144 86.8791 36.176L86.7831 36.656C86.7511 36.832 86.7111 37.008 86.6631 37.184C86.6311 37.36 86.5991 37.528 86.5671 37.688C86.5351 37.848 86.4951 38.008 86.4471 38.168C86.0951 39.576 85.7351 40.64 85.3671 41.36C85.0151 42.08 84.6551 42.536 84.2871 42.728ZM82.8711 33.416C82.9031 33.768 83.1991 33.92 83.7591 33.872C84.3191 33.808 84.9431 33.472 85.6311 32.864C85.9031 32.64 86.1431 32.384 86.3511 32.096C86.5751 31.808 86.7271 31.512 86.8071 31.208C86.8871 30.952 86.9031 30.776 86.8551 30.68C86.8231 30.568 86.6871 30.504 86.4471 30.488C86.1271 30.488 85.7991 30.56 85.4631 30.704C85.1431 30.832 84.7991 31.016 84.4311 31.256C84.2231 31.544 84.0471 31.728 83.9031 31.808C83.7591 31.888 83.6631 31.928 83.6151 31.928C83.5831 31.912 83.5991 31.92 83.6631 31.952C83.6311 32.016 83.5991 32.072 83.5671 32.12C83.5351 32.168 83.5031 32.216 83.4711 32.264C83.3751 32.424 83.2791 32.56 83.1831 32.672C83.0871 32.784 83.0071 32.896 82.9431 33.008C82.8951 33.12 82.8711 33.256 82.8711 33.416Z" fill="#1B1F20"/>
<path d="M74.0796 37.832C73.8716 37.832 73.7036 37.792 73.5756 37.712C73.4636 37.632 73.3196 37.52 73.1436 37.376C72.8396 37.056 72.5916 36.712 72.3996 36.344C72.2236 35.976 72.1596 35.656 72.2076 35.384C72.2556 35.256 72.2716 35.136 72.2556 35.024C72.2556 34.896 72.2556 34.832 72.2556 34.832C72.1756 34.752 72.1516 34.704 72.1836 34.688C72.2156 34.656 72.2476 34.608 72.2796 34.544C72.3756 34.544 72.4076 34.456 72.3756 34.28C72.3436 34.152 72.3916 33.88 72.5196 33.464C72.6636 33.032 72.8556 32.624 73.0956 32.24C73.1916 32.08 73.3356 31.872 73.5276 31.616C73.7196 31.344 73.9276 31.08 74.1516 30.824C74.3916 30.552 74.6076 30.336 74.7996 30.176C75.1996 29.84 75.5676 29.568 75.9036 29.36C76.2556 29.152 76.6076 29.008 76.9596 28.928C77.3116 28.848 77.6716 28.808 78.0396 28.808C78.4236 28.808 78.7356 28.936 78.9756 29.192C79.3436 29.352 79.5996 29.568 79.7436 29.84C79.9036 30.112 80.0076 30.464 80.0556 30.896C80.1036 31.376 80.0556 31.968 79.9116 32.672C79.7676 33.36 79.3756 34.16 78.7356 35.072C78.3356 35.648 77.9436 36.096 77.5596 36.416C77.1756 36.736 76.7516 37.032 76.2876 37.304C75.9516 37.528 75.5916 37.664 75.2076 37.712C74.8236 37.76 74.4476 37.8 74.0796 37.832ZM76.5276 34.904C76.8796 34.6 77.1276 34.264 77.2716 33.896C77.4316 33.528 77.5996 33.096 77.7756 32.6C77.8396 32.504 77.8796 32.344 77.8956 32.12C77.9276 31.896 77.9356 31.68 77.9196 31.472C77.9036 31.248 77.8476 31.12 77.7516 31.088C77.6076 30.976 77.4636 30.952 77.3196 31.016C77.1756 31.064 76.9916 31.168 76.7676 31.328C76.2876 31.728 75.8396 32.192 75.4236 32.72C75.0236 33.232 74.7436 33.864 74.5836 34.616C74.5356 35.016 74.5756 35.32 74.7036 35.528C74.8476 35.72 75.0716 35.776 75.3756 35.696C75.6956 35.6 76.0796 35.336 76.5276 34.904Z" fill="#1B1F20"/>
<path d="M68.8053 37.424C68.6453 37.328 68.4693 37.192 68.2773 37.016C68.0853 36.824 67.9893 36.64 67.9893 36.464C67.9893 36.224 68.0213 35.928 68.0853 35.576C68.1493 35.208 68.2133 34.896 68.2773 34.64C68.3093 34.352 68.3493 34.064 68.3973 33.776C68.4613 33.472 68.5733 33.192 68.7333 32.936C68.9093 32.328 69.0933 31.728 69.2853 31.136C69.4773 30.528 69.6453 29.904 69.7893 29.264C69.9973 28.672 70.1813 28.152 70.3413 27.704C70.5173 27.24 70.7333 26.656 70.9893 25.952C71.1333 25.552 71.2533 25.128 71.3493 24.68C71.4613 24.216 71.6293 23.8 71.8533 23.432C71.9493 23.288 72.0213 23.168 72.0693 23.072C72.1333 22.96 72.1973 22.856 72.2613 22.76C72.2773 22.696 72.3573 22.64 72.5013 22.592C72.6613 22.544 72.8213 22.52 72.9813 22.52C73.1573 22.504 73.2773 22.536 73.3413 22.616C73.3893 22.6 73.4693 22.664 73.5813 22.808C73.6933 22.936 73.7973 23.088 73.8933 23.264C74.0053 23.424 74.0533 23.552 74.0373 23.648C74.0373 23.712 74.0213 23.8 73.9893 23.912C73.9733 24.024 73.9333 24.128 73.8693 24.224C73.8053 24.288 73.7413 24.384 73.6773 24.512C73.6293 24.624 73.5493 24.784 73.4373 24.992C73.3733 25.2 73.3173 25.416 73.2693 25.64C73.2213 25.848 73.1573 26.04 73.0773 26.216C73.0133 26.408 72.9333 26.592 72.8373 26.768C72.7573 26.944 72.7013 27.088 72.6693 27.2C72.5573 27.568 72.4213 27.928 72.2613 28.28C72.1173 28.632 71.9893 29.008 71.8773 29.408C71.7653 29.792 71.6533 30.192 71.5413 30.608C71.4293 31.008 71.2693 31.392 71.0613 31.76C70.9493 31.936 70.8693 32.16 70.8213 32.432C70.7733 32.704 70.7253 32.976 70.6773 33.248C70.5813 33.536 70.4933 33.808 70.4133 34.064C70.3493 34.304 70.3173 34.456 70.3173 34.52C70.2213 34.872 70.1493 35.224 70.1013 35.576C70.0693 35.912 69.9893 36.208 69.8613 36.464C69.8453 36.624 69.7893 36.8 69.6933 36.992C69.5973 37.184 69.4693 37.328 69.3093 37.424C69.1653 37.52 68.9973 37.52 68.8053 37.424Z" fill="#1B1F20"/>
<path d="M61.8385 38.216C61.6305 38.232 61.4625 38.208 61.3345 38.144C61.2065 38.096 61.0465 38.016 60.8545 37.904C60.5025 37.632 60.2065 37.296 59.9665 36.896C59.7425 36.496 59.6385 36.16 59.6545 35.888C59.6865 35.744 59.6865 35.616 59.6545 35.504C59.6385 35.392 59.6305 35.336 59.6305 35.336C59.5345 35.256 59.5025 35.208 59.5345 35.192C59.5665 35.16 59.5905 35.112 59.6065 35.048C59.7345 35.016 59.7505 34.928 59.6545 34.784C59.6065 34.656 59.6305 34.368 59.7265 33.92C59.8385 33.456 59.9825 33.024 60.1585 32.624C60.2385 32.448 60.3505 32.216 60.4945 31.928C60.6545 31.64 60.8305 31.352 61.0225 31.064C61.2145 30.76 61.3905 30.52 61.5505 30.344C61.9025 29.944 62.2145 29.616 62.4865 29.36C62.7745 29.104 63.0945 28.912 63.4465 28.784C63.7665 28.656 64.0865 28.6 64.4065 28.616C64.7425 28.632 65.0385 28.744 65.2945 28.952C65.6785 29.064 66.0225 29.24 66.3265 29.48C66.6305 29.704 66.8385 30.024 66.9505 30.44C67.0785 30.904 67.1185 31.456 67.0705 32.096C67.0385 32.72 66.7665 33.528 66.2545 34.52C65.9505 35.144 65.6465 35.648 65.3425 36.032C65.0545 36.416 64.7025 36.784 64.2865 37.136C63.9825 37.392 63.5905 37.616 63.1105 37.808C62.6305 38 62.2065 38.136 61.8385 38.216ZM63.9265 34.592C64.1345 34.304 64.2945 34.024 64.4065 33.752C64.5345 33.48 64.6545 33.104 64.7665 32.624C64.8145 32.448 64.8385 32.232 64.8385 31.976C64.8545 31.72 64.8465 31.488 64.8145 31.28C64.7985 31.056 64.7425 30.936 64.6465 30.92C64.4385 30.84 64.2225 30.84 63.9985 30.92C63.7905 30.984 63.5425 31.176 63.2545 31.496C62.9985 31.784 62.7905 32.056 62.6305 32.312C62.4865 32.552 62.3505 32.848 62.2225 33.2C62.1105 33.536 61.9825 33.976 61.8385 34.52C61.7105 35.048 61.7025 35.472 61.8145 35.792C61.9425 36.112 62.1825 36.2 62.5345 36.056C62.8865 35.912 63.3505 35.424 63.9265 34.592Z" fill="#1B1F20"/>
<path d="M56.4064 38.456C56.1984 38.504 55.9904 38.448 55.7824 38.288C55.5904 38.144 55.4544 37.984 55.3744 37.808C55.2784 37.552 55.2144 37.312 55.1824 37.088C55.1664 36.848 55.1504 36.576 55.1344 36.272L55.1104 35.456L54.1264 36.344C53.5824 36.856 53.0704 37.224 52.5904 37.448C52.1264 37.656 51.7024 37.76 51.3184 37.76C51.1424 37.728 50.9264 37.616 50.6704 37.424C50.4304 37.216 50.2064 36.992 49.9984 36.752C49.8064 36.496 49.6704 36.288 49.5904 36.128C49.4944 35.904 49.4624 35.592 49.4944 35.192C49.5424 34.792 49.6384 34.352 49.7824 33.872C49.9424 33.392 50.1344 32.92 50.3584 32.456C50.5984 31.992 50.8704 31.592 51.1744 31.256C51.7024 30.456 52.3584 29.96 53.1424 29.768C53.9264 29.56 54.6224 29.624 55.2304 29.96C55.5184 30.104 55.7264 30.16 55.8544 30.128C55.9824 30.096 56.0624 29.992 56.0944 29.816C56.1584 29.56 56.2304 29.32 56.3104 29.096C56.3904 28.872 56.5024 28.536 56.6464 28.088C57.0464 26.872 57.3904 25.92 57.6784 25.232C57.9824 24.544 58.2544 23.944 58.4944 23.432C58.6704 23.064 58.8464 22.808 59.0224 22.664C59.1984 22.52 59.3504 22.456 59.4784 22.472C59.6544 22.472 59.8704 22.536 60.1264 22.664C60.3984 22.792 60.5744 22.968 60.6544 23.192C60.7184 23.336 60.7424 23.488 60.7264 23.648C60.7264 23.808 60.6784 23.976 60.5824 24.152C60.3744 24.536 60.1264 25.048 59.8384 25.688C59.5664 26.312 59.2864 27 58.9984 27.752C58.7264 28.504 58.4704 29.248 58.2304 29.984C57.9904 30.72 57.7904 31.368 57.6304 31.928C57.5344 32.28 57.4544 32.728 57.3904 33.272C57.3424 33.816 57.3024 34.376 57.2704 34.952C57.2544 35.512 57.2544 36.016 57.2704 36.464C57.2864 36.896 57.3104 37.176 57.3424 37.304C57.4384 37.624 57.4384 37.864 57.3424 38.024C57.2464 38.184 57.1104 38.288 56.9344 38.336C56.7584 38.4 56.5824 38.44 56.4064 38.456ZM52.4464 35.552C52.6704 35.472 52.8704 35.376 53.0464 35.264C53.2224 35.152 53.4304 35.008 53.6704 34.832C54.1504 34.464 54.4944 34.144 54.7024 33.872C54.9264 33.6 55.1024 33.264 55.2304 32.864C55.3104 32.624 55.3104 32.416 55.2304 32.24C55.1664 32.064 55.0464 31.896 54.8704 31.736C54.6944 31.592 54.4704 31.536 54.1984 31.568C53.9264 31.584 53.6144 31.752 53.2624 32.072C52.8784 32.424 52.5504 32.832 52.2784 33.296C52.0064 33.76 51.7824 34.424 51.6064 35.288C51.5744 35.448 51.6304 35.56 51.7744 35.624C51.9184 35.688 52.1424 35.664 52.4464 35.552Z" fill="#1B1F20"/>
<path d="M43.4143 37.808C43.0783 37.872 42.8223 37.856 42.6463 37.76C42.4863 37.648 42.3183 37.512 42.1423 37.352C41.8863 37.224 41.6543 37.048 41.4463 36.824C41.2383 36.584 41.0783 36.336 40.9663 36.08C40.8543 35.824 40.8063 35.624 40.8223 35.48C40.8703 34.92 40.9983 34.312 41.2063 33.656C41.4303 33 41.7103 32.36 42.0463 31.736C42.3983 31.112 42.7903 30.56 43.2223 30.08C43.6703 29.584 44.1503 29.224 44.6623 29C44.9823 28.872 45.3263 28.824 45.6943 28.856C46.0623 28.888 46.3103 29.04 46.4383 29.312C46.6783 29.776 46.6223 30.072 46.2703 30.2C46.2223 30.2 46.1663 30.224 46.1023 30.272C46.0383 30.304 46.0063 30.352 46.0063 30.416C46.0703 30.448 46.2463 30.456 46.5343 30.44C46.8223 30.408 47.1103 30.36 47.3983 30.296C47.7023 30.216 47.9023 30.136 47.9983 30.056C48.0943 30.008 48.1663 29.984 48.2143 29.984C48.2623 29.984 48.3823 30 48.5743 30.032C48.8463 30.112 48.9823 30.208 48.9823 30.32C48.9823 30.384 49.0063 30.488 49.0543 30.632C49.1023 30.76 49.1583 30.824 49.2223 30.824C49.3343 30.84 49.3583 30.952 49.2943 31.16C49.2463 31.368 49.0623 31.584 48.7423 31.808C48.4383 32 48.2463 32.128 48.1663 32.192C48.1023 32.24 48.0943 32.352 48.1423 32.528C48.2703 32.832 48.2623 33.2 48.1183 33.632C47.9743 34.064 47.7343 34.512 47.3983 34.976C47.0623 35.44 46.6623 35.88 46.1983 36.296C45.7503 36.696 45.2783 37.04 44.7823 37.328C44.3023 37.6 43.8463 37.76 43.4143 37.808ZM43.4863 35.792C43.5503 35.792 43.6623 35.76 43.8223 35.696C43.9823 35.616 44.1103 35.552 44.2063 35.504C44.2703 35.44 44.3503 35.368 44.4463 35.288C44.5583 35.192 44.6463 35.136 44.7103 35.12C44.7743 35.12 44.8143 35.096 44.8303 35.048C44.8463 34.984 44.9023 34.864 44.9983 34.688C45.0943 34.496 45.2863 34.216 45.5743 33.848C45.8943 33.496 46.1023 33.216 46.1983 33.008C46.2943 32.784 46.3023 32.544 46.2223 32.288C46.2063 32.224 46.1583 32.184 46.0783 32.168C46.0143 32.152 45.9263 32.112 45.8143 32.048C45.6543 32.048 45.5423 32.088 45.4783 32.168C45.4303 32.232 45.3183 32.192 45.1423 32.048L44.7583 31.568L44.3503 31.976C44.0943 32.232 43.8623 32.552 43.6543 32.936C43.4623 33.32 43.3103 33.712 43.1983 34.112C43.0863 34.512 43.0143 34.864 42.9823 35.168C42.9663 35.408 43.0063 35.568 43.1023 35.648C43.1983 35.728 43.3263 35.776 43.4863 35.792Z" fill="#1B1F20"/>
<path d="M38.6657 37.832C38.3617 37.912 38.0417 37.968 37.7057 38C37.3857 38.048 37.1057 37.952 36.8657 37.712C36.7217 37.488 36.5937 37.288 36.4817 37.112C36.3697 36.936 36.2977 36.624 36.2657 36.176C36.2497 35.872 36.2657 35.544 36.3137 35.192C36.3777 34.824 36.4017 34.56 36.3857 34.4C36.5137 33.808 36.5457 33.384 36.4817 33.128C36.4337 32.872 36.3697 32.744 36.2897 32.744C36.1137 32.712 35.8337 32.84 35.4497 33.128C35.0817 33.416 34.6417 33.824 34.1297 34.352C33.6337 34.864 33.0977 35.448 32.5217 36.104C32.2177 36.52 31.9937 36.832 31.8497 37.04C31.7217 37.232 31.6257 37.328 31.5617 37.328C31.2737 37.328 31.0097 37.28 30.7697 37.184C30.5297 37.088 30.3377 36.952 30.1937 36.776C30.0497 36.6 29.9617 36.416 29.9297 36.224C29.9297 36.16 29.9697 35.992 30.0497 35.72C30.1297 35.432 30.2257 35.104 30.3377 34.736C30.4497 34.368 30.5537 34.024 30.6497 33.704C30.7617 33.384 30.8417 33.16 30.8897 33.032C31.0337 32.616 31.2017 32.112 31.3937 31.52C31.6017 30.912 31.7857 30.376 31.9457 29.912C32.0097 29.704 32.1217 29.408 32.2817 29.024C32.4417 28.624 32.6017 28.224 32.7617 27.824C32.9217 27.424 33.0337 27.128 33.0977 26.936C33.1457 26.808 33.2337 26.584 33.3617 26.264C33.4897 25.928 33.6257 25.56 33.7697 25.16C33.9297 24.76 34.0737 24.392 34.2017 24.056C34.3457 23.704 34.4417 23.448 34.4897 23.288C34.4737 23.144 34.4817 23.016 34.5137 22.904C34.5617 22.776 34.6097 22.68 34.6577 22.616C34.7217 22.616 34.7937 22.616 34.8737 22.616C34.9537 22.6 34.9937 22.592 34.9937 22.592C34.9937 22.56 35.0977 22.592 35.3057 22.688C35.5297 22.784 35.7457 22.904 35.9537 23.048C36.1777 23.176 36.2897 23.288 36.2897 23.384C36.3697 23.592 36.3777 23.864 36.3137 24.2C36.2497 24.52 36.0817 25.008 35.8097 25.664C35.6337 25.92 35.4577 26.304 35.2817 26.816C35.1217 27.328 34.9617 27.76 34.8017 28.112C34.7377 28.224 34.6417 28.424 34.5137 28.712C34.4017 28.984 34.2657 29.312 34.1057 29.696C33.9617 30.064 33.8177 30.456 33.6737 30.872C33.5297 31.288 33.4017 31.696 33.2897 32.096C33.1297 32.48 33.0737 32.736 33.1217 32.864C33.1697 32.992 33.3617 32.848 33.6977 32.432C34.1457 31.952 34.5617 31.52 34.9457 31.136C35.3457 30.752 35.7137 30.448 36.0497 30.224C36.4017 29.984 36.7137 29.88 36.9857 29.912C37.1297 29.944 37.3137 30.048 37.5377 30.224C37.7777 30.384 38.0017 30.576 38.2097 30.8C38.4337 31.008 38.5777 31.208 38.6417 31.4C38.7057 31.624 38.7457 31.84 38.7617 32.048C38.7937 32.256 38.8017 32.552 38.7857 32.936C38.7697 33.304 38.7297 33.856 38.6657 34.592C38.5697 35.136 38.5057 35.528 38.4737 35.768C38.4417 35.992 38.4497 36.152 38.4977 36.248C38.5617 36.344 38.6577 36.448 38.7857 36.56C39.0257 36.752 39.1217 36.984 39.0737 37.256C39.0257 37.512 38.8897 37.704 38.6657 37.832Z" fill="#1B1F20"/>
<path d="M25.2 38.144C24.976 38.08 24.752 37.968 24.528 37.808C24.304 37.648 24.072 37.464 23.832 37.256C23.64 37 23.504 36.768 23.424 36.56C23.344 36.336 23.296 36.08 23.28 35.792C23.28 35.488 23.28 35.104 23.28 34.64C23.28 34.448 23.312 34.176 23.376 33.824C23.456 33.472 23.536 33.104 23.616 32.72C23.712 32.336 23.8 32 23.88 31.712C23.96 31.408 24.008 31.208 24.024 31.112C24.072 30.904 23.992 30.784 23.784 30.752C23.576 30.72 23.344 30.712 23.088 30.728C22.848 30.728 22.688 30.704 22.608 30.656C22.544 30.64 22.512 30.56 22.512 30.416C22.512 30.256 22.512 30.176 22.512 30.176C22.512 30.112 22.48 30.072 22.416 30.056C22.352 30.024 22.296 29.968 22.248 29.888C22.216 29.824 22.256 29.704 22.368 29.528C22.48 29.352 22.624 29.248 22.8 29.216C22.944 29.184 23.16 29.16 23.448 29.144C23.736 29.112 24.024 29.056 24.312 28.976C24.616 28.88 24.848 28.736 25.008 28.544C25.152 28.192 25.312 27.816 25.488 27.416C25.664 27 25.832 26.64 25.992 26.336C26.152 26.016 26.264 25.816 26.328 25.736C26.6 25.592 26.88 25.536 27.168 25.568C27.456 25.584 27.68 25.72 27.84 25.976C27.92 26.088 27.984 26.168 28.032 26.216C28.096 26.264 28.12 26.336 28.104 26.432C28.104 26.528 28.04 26.704 27.912 26.96C27.8 27.2 27.608 27.576 27.336 28.088C27.256 28.248 27.184 28.392 27.12 28.52C27.056 28.632 27.024 28.688 27.024 28.688C27.088 28.704 27.184 28.712 27.312 28.712C27.44 28.712 27.6 28.704 27.792 28.688C27.968 28.656 28.16 28.632 28.368 28.616C28.576 28.584 28.76 28.584 28.92 28.616C29.288 28.616 29.56 28.72 29.736 28.928C29.912 29.136 30.008 29.4 30.024 29.72C30.056 29.896 29.992 30.048 29.832 30.176C29.672 30.304 29.376 30.368 28.944 30.368C28.8 30.368 28.592 30.376 28.32 30.392C28.048 30.408 27.768 30.424 27.48 30.44C27.192 30.456 26.944 30.48 26.736 30.512C26.544 30.528 26.448 30.552 26.448 30.584C26.4 30.616 26.32 30.744 26.208 30.968C26.112 31.176 26.008 31.432 25.896 31.736C25.8 32.04 25.712 32.328 25.632 32.6C25.52 33.144 25.44 33.672 25.392 34.184C25.344 34.696 25.336 35.144 25.368 35.528C25.416 35.896 25.512 36.16 25.656 36.32C25.8 36.464 26.016 36.464 26.304 36.32C26.608 36.16 26.888 35.976 27.144 35.768C27.432 35.528 27.68 35.456 27.888 35.552C28.096 35.632 28.224 35.808 28.272 36.08C28.336 36.336 28.264 36.616 28.056 36.92C27.864 37.224 27.592 37.48 27.24 37.688C26.888 37.896 26.528 38.04 26.16 38.12C25.792 38.216 25.472 38.224 25.2 38.144Z" fill="#1B1F20"/>
<path d="M18.6966 37.52C18.2166 37.792 17.7046 37.952 17.1606 38C16.6326 38.032 16.1366 37.96 15.6726 37.784C15.2086 37.592 14.8326 37.312 14.5446 36.944C14.3846 36.736 14.2326 36.408 14.0886 35.96C13.9446 35.496 13.9206 34.872 14.0166 34.088C14.1126 33.352 14.3366 32.608 14.6886 31.856C15.0566 31.104 15.5046 30.44 16.0326 29.864C16.5606 29.288 17.1366 28.896 17.7606 28.688C17.9846 28.608 18.2086 28.552 18.4326 28.52C18.6726 28.472 18.9846 28.464 19.3686 28.496C19.7366 28.544 20.0646 28.64 20.3526 28.784C20.6406 28.912 20.8486 29.056 20.9766 29.216C21.2326 29.472 21.4006 29.72 21.4806 29.96C21.5606 30.2 21.5926 30.432 21.5766 30.656C21.4966 31.168 21.2646 31.72 20.8806 32.312C20.5126 32.904 19.9926 33.344 19.3206 33.632C19.0486 33.744 18.7286 33.816 18.3606 33.848C17.9926 33.88 17.4886 33.832 16.8486 33.704C16.4646 33.624 16.2086 33.664 16.0806 33.824C15.9686 33.984 15.9206 34.296 15.9366 34.76C15.9686 35.048 16.0326 35.304 16.1286 35.528C16.2406 35.736 16.4406 35.88 16.7286 35.96C17.0966 36.024 17.3606 36.032 17.5206 35.984C17.6806 35.92 17.8806 35.832 18.1206 35.72C18.2486 35.64 18.3686 35.552 18.4806 35.456C18.6086 35.36 18.7286 35.264 18.8406 35.168C18.9686 35.072 19.0726 35 19.1526 34.952C19.2326 34.888 19.3126 34.848 19.3926 34.832C19.4726 34.816 19.5526 34.808 19.6326 34.808C19.8086 34.824 19.9766 34.92 20.1366 35.096C20.2966 35.272 20.4006 35.44 20.4486 35.6C20.4486 35.728 20.3686 35.912 20.2086 36.152C20.0486 36.376 19.8326 36.616 19.5606 36.872C19.3046 37.112 19.0166 37.328 18.6966 37.52ZM18.3846 32.168C18.4966 32.12 18.6566 32.008 18.8646 31.832C19.0886 31.656 19.2886 31.472 19.4646 31.28C19.6406 31.072 19.7286 30.912 19.7286 30.8C19.7286 30.624 19.6086 30.472 19.3686 30.344C19.1446 30.216 18.8486 30.192 18.4806 30.272C18.3526 30.304 18.2006 30.392 18.0246 30.536C17.8486 30.68 17.6726 30.848 17.4966 31.04C17.3206 31.216 17.1686 31.392 17.0406 31.568C16.9126 31.728 16.8246 31.856 16.7766 31.952C16.8406 32.032 16.9686 32.096 17.1606 32.144C17.3526 32.192 17.5606 32.216 17.7846 32.216C18.0246 32.216 18.2246 32.2 18.3846 32.168Z" fill="#1B1F20"/>
<path d="M11.5844 37.424C11.4724 37.392 11.2964 37.288 11.0564 37.112C10.8164 36.936 10.6004 36.672 10.4084 36.32C10.2324 35.968 10.1524 35.512 10.1684 34.952C10.1844 34.472 10.2164 34.136 10.2644 33.944C10.3284 33.736 10.3044 33.624 10.1924 33.608C10.1124 33.592 9.95243 33.664 9.71243 33.824C9.47243 33.984 9.16043 34.24 8.77643 34.592C8.39243 34.944 7.92843 35.408 7.38443 35.984C7.19243 36.144 6.97643 36.344 6.73643 36.584C6.51243 36.808 6.28043 36.976 6.04043 37.088C5.81643 37.2 5.61643 37.176 5.44043 37.016L5.20043 36.8C5.08843 36.704 4.99243 36.576 4.91243 36.416C4.83243 36.256 4.80843 36.12 4.84043 36.008L5.51243 34.136C5.70443 33.72 5.83243 33.416 5.89643 33.224C5.97643 33.032 6.00843 32.912 5.99243 32.864C5.99243 32.816 5.95243 32.8 5.87243 32.816C5.77643 32.832 5.64043 32.92 5.46443 33.08C5.28843 33.224 5.16843 33.344 5.10443 33.44C5.04043 33.44 4.95243 33.504 4.84043 33.632C4.74443 33.76 4.64843 33.872 4.55243 33.968C4.45643 34.064 4.28843 34.248 4.04843 34.52C3.80843 34.776 3.55243 35.048 3.28043 35.336C3.07243 35.528 2.83243 35.784 2.56043 36.104C2.28843 36.424 2.04843 36.712 1.84043 36.968C1.63243 37.224 1.50443 37.352 1.45643 37.352C1.16843 37.336 0.904428 37.24 0.664428 37.064C0.440428 36.888 0.288428 36.672 0.208428 36.416C0.112428 36.24 0.104428 35.92 0.184428 35.456C0.264428 34.976 0.416428 34.216 0.640428 33.176C0.704428 32.936 0.760428 32.728 0.808428 32.552C0.872428 32.376 0.936428 32.2 1.00043 32.024C1.06443 31.848 1.13643 31.648 1.21643 31.424C1.31243 31.2 1.43243 30.928 1.57643 30.608C1.65643 30.384 1.68843 30.176 1.67243 29.984C1.65643 29.776 1.64043 29.608 1.62443 29.48C1.62443 29.24 1.69643 29.048 1.84043 28.904C2.00043 28.76 2.17643 28.664 2.36843 28.616C2.56043 28.552 2.71243 28.536 2.82443 28.568C3.27243 28.616 3.57643 28.776 3.73643 29.048C3.89643 29.32 3.98443 29.584 4.00043 29.84C4.01643 30.08 3.98443 30.296 3.90443 30.488C3.82443 30.68 3.76043 30.84 3.71243 30.968L3.44843 31.616C3.28843 31.984 3.16843 32.256 3.08843 32.432C3.02443 32.592 2.98443 32.704 2.96843 32.768C2.96843 32.816 2.96843 32.864 2.96843 32.912C2.98443 32.96 3.05643 32.936 3.18443 32.84C3.31243 32.744 3.46443 32.616 3.64043 32.456C3.83243 32.28 4.00843 32.128 4.16843 32C4.45643 31.76 4.76043 31.52 5.08043 31.28C5.41643 31.024 5.74443 30.8 6.06443 30.608C6.38443 30.416 6.64843 30.288 6.85643 30.224C7.12843 30.272 7.37643 30.408 7.60043 30.632C7.84043 30.856 7.99243 31.048 8.05643 31.208C8.13643 31.448 8.14443 31.664 8.08043 31.856C8.03243 32.048 7.99243 32.224 7.96043 32.384C7.94443 32.448 7.91243 32.568 7.86443 32.744C7.81643 32.92 7.76843 33.088 7.72043 33.248C7.67243 33.392 7.64843 33.464 7.64843 33.464C7.64843 33.464 7.69643 33.416 7.79243 33.32C7.88843 33.224 8.01643 33.112 8.17643 32.984C8.33643 32.84 8.49643 32.712 8.65643 32.6C9.45643 31.992 10.0884 31.608 10.5524 31.448C11.0324 31.272 11.4404 31.408 11.7764 31.856C11.9684 32.032 12.0884 32.272 12.1364 32.576C12.2004 32.88 12.2324 33.288 12.2324 33.8C12.2484 34.008 12.2644 34.24 12.2804 34.496C12.3124 34.752 12.3444 34.976 12.3764 35.168C12.4244 35.36 12.4644 35.48 12.4964 35.528C12.5444 35.592 12.6324 35.656 12.7604 35.72C12.8884 35.768 13.0084 35.808 13.1204 35.84C13.3444 35.952 13.4644 36.16 13.4804 36.464C13.5124 36.752 13.4004 36.976 13.1444 37.136C12.9044 37.28 12.6484 37.368 12.3764 37.4C12.1204 37.432 11.8564 37.44 11.5844 37.424Z" fill="#1B1F20"/>
<path d="M51.2971 15.784C50.6731 15.528 50.2411 15.112 50.0011 14.536C49.7611 13.96 49.6971 13.192 49.8091 12.232C49.8411 11.736 49.8251 11.408 49.7611 11.248C49.6971 11.072 49.5771 10.904 49.4011 10.744C49.3531 10.68 49.2411 10.576 49.0651 10.432C48.8891 10.272 48.8091 10.152 48.8251 10.072C48.8091 9.96 48.8331 9.824 48.8971 9.664C48.9611 9.488 49.0171 9.392 49.0651 9.376C49.1771 9.328 49.2891 9.272 49.4011 9.208C49.5291 9.144 49.6251 9.128 49.6891 9.16C49.7531 9.16 49.8491 9.2 49.9771 9.28C50.1211 9.36 50.1931 9.432 50.1931 9.496C50.2571 9.608 50.3531 9.56 50.4811 9.352C50.6251 9.144 50.7771 8.88 50.9371 8.56C51.0971 8.304 51.2971 8.064 51.5371 7.84C51.7771 7.616 52.0171 7.416 52.2571 7.24C52.5131 7.048 52.7291 6.904 52.9051 6.808C52.9851 6.776 53.1371 6.728 53.3611 6.664C53.6011 6.6 53.8491 6.552 54.1051 6.52C54.3611 6.472 54.5531 6.456 54.6811 6.472C54.9691 6.488 55.2731 6.608 55.5931 6.832C55.9131 7.056 56.1611 7.264 56.3371 7.456C56.5451 7.6 56.6811 7.824 56.7451 8.128C56.8251 8.416 56.8571 8.72 56.8411 9.04C56.8251 9.36 56.7611 9.632 56.6491 9.856C56.6011 10.016 56.4331 10.24 56.1451 10.528C55.8571 10.816 55.5371 11.096 55.1851 11.368C54.8491 11.624 54.5611 11.8 54.3211 11.896C54.1131 11.944 53.8651 11.984 53.5771 12.016C53.2891 12.032 53.0171 12.032 52.7611 12.016C52.5211 11.984 52.3531 11.944 52.2571 11.896C52.1451 11.832 52.0491 11.856 51.9691 11.968C51.9051 12.064 51.8491 12.336 51.8011 12.784C51.7851 12.96 51.7851 13.112 51.8011 13.24C51.8331 13.368 51.8651 13.464 51.8971 13.528C52.0091 13.72 52.1211 13.864 52.2331 13.96C52.3451 14.04 52.5531 14.064 52.8571 14.032C53.1611 14 53.4651 13.816 53.7691 13.48C54.0891 13.128 54.3771 12.848 54.6331 12.64C54.6971 12.528 54.8331 12.456 55.0411 12.424C55.2651 12.376 55.5291 12.392 55.8331 12.472C56.0091 12.584 56.0891 12.76 56.0731 13C56.0731 13.24 55.9451 13.592 55.6891 14.056C55.6411 14.168 55.5051 14.336 55.2811 14.56C55.0731 14.768 54.8411 14.984 54.5851 15.208C54.3451 15.416 54.1451 15.568 53.9851 15.664C53.5051 15.92 53.0331 16.04 52.5691 16.024C52.1051 16.008 51.6811 15.928 51.2971 15.784ZM53.0731 10.384C53.3131 10.32 53.5131 10.256 53.6731 10.192C53.8491 10.128 54.0171 10.024 54.1771 9.88C54.3371 9.736 54.5211 9.52 54.7291 9.232C54.7931 9.056 54.8251 8.904 54.8251 8.776C54.8411 8.648 54.8331 8.568 54.8011 8.536C54.6731 8.408 54.5291 8.368 54.3691 8.416C54.2251 8.448 54.0651 8.528 53.8891 8.656C53.7771 8.704 53.6171 8.808 53.4091 8.968C53.2171 9.112 53.0251 9.28 52.8331 9.472C52.6571 9.648 52.5131 9.816 52.4011 9.976C52.3051 10.12 52.2891 10.208 52.3531 10.24C52.3211 10.304 52.4091 10.344 52.6171 10.36C52.8411 10.376 52.9931 10.384 53.0731 10.384Z" fill="#1B1F20"/>
<path d="M47.2204 15.832C46.9164 15.912 46.5964 15.968 46.2604 16C45.9404 16.048 45.6604 15.952 45.4204 15.712C45.2764 15.488 45.1484 15.288 45.0364 15.112C44.9244 14.936 44.8524 14.624 44.8204 14.176C44.8044 13.872 44.8204 13.544 44.8684 13.192C44.9324 12.824 44.9564 12.56 44.9404 12.4C45.0684 11.808 45.1004 11.384 45.0364 11.128C44.9884 10.872 44.9244 10.744 44.8444 10.744C44.6684 10.712 44.3884 10.84 44.0044 11.128C43.6364 11.416 43.1964 11.824 42.6844 12.352C42.1884 12.864 41.6524 13.448 41.0764 14.104C40.7724 14.52 40.5484 14.832 40.4044 15.04C40.2764 15.232 40.1804 15.328 40.1164 15.328C39.8284 15.328 39.5644 15.28 39.3244 15.184C39.0844 15.088 38.8924 14.952 38.7484 14.776C38.6044 14.6 38.5164 14.416 38.4844 14.224C38.4844 14.16 38.5244 13.992 38.6044 13.72C38.6844 13.432 38.7804 13.104 38.8924 12.736C39.0044 12.368 39.1084 12.024 39.2044 11.704C39.3164 11.384 39.3964 11.16 39.4444 11.032C39.5884 10.616 39.7564 10.112 39.9484 9.52002C40.1564 8.91202 40.3404 8.37602 40.5004 7.91202C40.5644 7.70402 40.6764 7.40802 40.8364 7.02402C40.9964 6.62402 41.1564 6.22402 41.3164 5.82402C41.4764 5.42402 41.5884 5.12802 41.6524 4.93602C41.7004 4.80802 41.7884 4.58402 41.9164 4.26402C42.0444 3.92802 42.1804 3.56002 42.3244 3.16002C42.4844 2.76002 42.6284 2.39202 42.7564 2.05602C42.9004 1.70402 42.9964 1.44802 43.0444 1.28802C43.0284 1.14402 43.0364 1.01602 43.0684 0.904018C43.1164 0.776017 43.1644 0.680017 43.2124 0.616017C43.2764 0.616017 43.3484 0.616017 43.4284 0.616017C43.5084 0.600017 43.5484 0.592017 43.5484 0.592017C43.5484 0.560017 43.6524 0.592017 43.8604 0.688018C44.0844 0.784017 44.3004 0.904017 44.5084 1.04802C44.7324 1.17602 44.8444 1.28802 44.8444 1.38402C44.9244 1.59202 44.9324 1.86402 44.8684 2.20002C44.8044 2.52002 44.6364 3.00802 44.3644 3.66402C44.1884 3.92002 44.0124 4.30402 43.8364 4.81602C43.6764 5.32802 43.5164 5.76002 43.3564 6.11202C43.2924 6.22402 43.1964 6.42402 43.0684 6.71202C42.9564 6.98402 42.8204 7.31202 42.6604 7.69602C42.5164 8.06402 42.3724 8.45602 42.2284 8.87202C42.0844 9.28802 41.9564 9.69602 41.8444 10.096C41.6844 10.48 41.6284 10.736 41.6764 10.864C41.7244 10.992 41.9164 10.848 42.2524 10.432C42.7004 9.95202 43.1164 9.52002 43.5004 9.13602C43.9004 8.75202 44.2684 8.44802 44.6044 8.22402C44.9564 7.98402 45.2684 7.88002 45.5404 7.91202C45.6844 7.94402 45.8684 8.04802 46.0924 8.22402C46.3324 8.38402 46.5564 8.57602 46.7644 8.80002C46.9884 9.00802 47.1324 9.20802 47.1964 9.40002C47.2604 9.62402 47.3004 9.84002 47.3164 10.048C47.3484 10.256 47.3564 10.552 47.3404 10.936C47.3244 11.304 47.2844 11.856 47.2204 12.592C47.1244 13.136 47.0604 13.528 47.0284 13.768C46.9964 13.992 47.0044 14.152 47.0524 14.248C47.1164 14.344 47.2124 14.448 47.3404 14.56C47.5804 14.752 47.6764 14.984 47.6284 15.256C47.5804 15.512 47.4444 15.704 47.2204 15.832Z" fill="#1B1F20"/>
<path d="M33.7547 16.144C33.5307 16.08 33.3067 15.968 33.0827 15.808C32.8587 15.648 32.6267 15.464 32.3867 15.256C32.1947 15 32.0587 14.768 31.9787 14.56C31.8987 14.336 31.8507 14.08 31.8347 13.792C31.8347 13.488 31.8347 13.104 31.8347 12.64C31.8347 12.448 31.8667 12.176 31.9307 11.824C32.0107 11.472 32.0907 11.104 32.1707 10.72C32.2667 10.336 32.3547 9.99999 32.4347 9.71199C32.5147 9.40799 32.5627 9.20799 32.5787 9.11199C32.6267 8.90399 32.5467 8.78399 32.3387 8.75199C32.1307 8.71999 31.8987 8.71199 31.6427 8.72799C31.4027 8.72799 31.2427 8.70399 31.1627 8.65599C31.0987 8.63999 31.0667 8.55999 31.0667 8.41599C31.0667 8.25599 31.0667 8.17599 31.0667 8.17599C31.0667 8.11199 31.0347 8.07199 30.9707 8.05599C30.9067 8.02399 30.8507 7.96799 30.8027 7.88799C30.7707 7.82399 30.8107 7.70399 30.9227 7.52799C31.0347 7.35199 31.1787 7.24799 31.3547 7.21599C31.4987 7.18399 31.7147 7.15999 32.0027 7.14399C32.2907 7.11199 32.5787 7.05599 32.8667 6.97599C33.1707 6.87999 33.4027 6.73599 33.5627 6.54399C33.7067 6.19199 33.8667 5.81599 34.0427 5.41599C34.2187 4.99999 34.3867 4.63999 34.5467 4.33599C34.7067 4.01599 34.8187 3.81599 34.8827 3.73599C35.1547 3.59199 35.4347 3.53599 35.7227 3.56799C36.0107 3.58399 36.2347 3.71999 36.3947 3.97599C36.4747 4.08799 36.5387 4.16799 36.5867 4.21599C36.6507 4.26399 36.6747 4.33599 36.6587 4.43199C36.6587 4.52799 36.5947 4.70399 36.4667 4.95999C36.3547 5.19999 36.1627 5.57599 35.8907 6.08799C35.8107 6.24799 35.7387 6.39199 35.6747 6.51999C35.6107 6.63199 35.5787 6.68799 35.5787 6.68799C35.6427 6.70399 35.7387 6.71199 35.8667 6.71199C35.9947 6.71199 36.1547 6.70399 36.3467 6.68799C36.5227 6.65599 36.7147 6.63199 36.9227 6.61599C37.1307 6.58399 37.3147 6.58399 37.4747 6.61599C37.8427 6.61599 38.1147 6.71999 38.2907 6.92799C38.4667 7.13599 38.5627 7.39999 38.5787 7.71999C38.6107 7.89599 38.5467 8.04799 38.3867 8.17599C38.2267 8.30399 37.9307 8.36799 37.4987 8.36799C37.3547 8.36799 37.1467 8.37599 36.8747 8.39199C36.6027 8.40799 36.3227 8.42399 36.0347 8.43999C35.7467 8.45599 35.4987 8.47999 35.2907 8.51199C35.0987 8.52799 35.0027 8.55199 35.0027 8.58399C34.9547 8.61599 34.8747 8.74399 34.7627 8.96799C34.6667 9.17599 34.5627 9.43199 34.4507 9.73599C34.3547 10.04 34.2667 10.328 34.1867 10.6C34.0747 11.144 33.9947 11.672 33.9467 12.184C33.8987 12.696 33.8907 13.144 33.9227 13.528C33.9707 13.896 34.0667 14.16 34.2107 14.32C34.3547 14.464 34.5707 14.464 34.8587 14.32C35.1627 14.16 35.4427 13.976 35.6987 13.768C35.9867 13.528 36.2347 13.456 36.4427 13.552C36.6507 13.632 36.7787 13.808 36.8267 14.08C36.8907 14.336 36.8187 14.616 36.6107 14.92C36.4187 15.224 36.1467 15.48 35.7947 15.688C35.4427 15.896 35.0827 16.04 34.7147 16.12C34.3467 16.216 34.0267 16.224 33.7547 16.144Z" fill="#1B1F20"/>
<path d="M19.2311 16.432C18.3511 16.432 17.6711 16.176 17.1911 15.664C16.7271 15.152 16.4951 14.368 16.4951 13.312C16.4951 12.736 16.5991 12.104 16.8071 11.416C17.0311 10.728 17.3191 10.056 17.6711 9.40001C18.0391 8.74401 18.4391 8.17601 18.8711 7.69601C19.3031 7.20001 19.7351 6.85601 20.1671 6.66401C20.3271 6.58401 20.4951 6.52801 20.6711 6.49601C20.8631 6.44801 21.0471 6.42401 21.2231 6.42401C21.4151 6.42401 21.6231 6.44001 21.8471 6.47201C22.0871 6.48801 22.3111 6.53601 22.5191 6.61601C22.8871 6.72801 23.2071 6.94401 23.4791 7.26401C23.7671 7.58401 23.9111 8.04801 23.9111 8.65601C23.9111 8.81601 23.8951 8.99201 23.8631 9.18401C23.8311 9.36001 23.7751 9.53601 23.6951 9.71201C23.4871 10.24 23.1671 10.744 22.7351 11.224C22.3191 11.704 21.8791 12.04 21.4151 12.232C21.2871 12.296 21.1591 12.344 21.0311 12.376C20.9191 12.392 20.7991 12.4 20.6711 12.4C20.3351 12.4 20.0311 12.352 19.7591 12.256C19.5031 12.16 19.2631 12.032 19.0391 11.872L18.8471 11.704L18.7271 11.944C18.6151 12.248 18.5351 12.504 18.4871 12.712C18.4551 12.92 18.4391 13.072 18.4391 13.168C18.4391 13.36 18.4471 13.56 18.4631 13.768C18.4791 13.96 18.5271 14.12 18.6071 14.248C18.6711 14.328 18.7511 14.392 18.8471 14.44C18.9591 14.488 19.0951 14.512 19.2551 14.512C19.3511 14.512 19.4391 14.512 19.5191 14.512C19.6151 14.496 19.6951 14.48 19.7591 14.464C20.0471 14.4 20.2791 14.296 20.4551 14.152C20.6471 13.992 20.8471 13.856 21.0551 13.744L21.1511 13.696L21.1271 13.624C21.3991 13.48 21.5831 13.392 21.6791 13.36C21.7751 13.312 21.8471 13.272 21.8951 13.24C21.9591 13.176 22.0311 13.144 22.1111 13.144C22.3351 13.112 22.5511 13.176 22.7591 13.336C22.9831 13.48 23.0951 13.664 23.0951 13.888C23.0951 13.984 23.0231 14.136 22.8791 14.344C22.7511 14.552 22.5831 14.76 22.3751 14.968C22.1831 15.16 21.9831 15.312 21.7751 15.424C21.7271 15.44 21.6791 15.464 21.6311 15.496C21.5831 15.512 21.5351 15.536 21.4871 15.568H21.5111C21.3671 15.76 21.2231 15.856 21.0791 15.856H20.8871C20.8231 15.968 20.6151 16.088 20.2631 16.216C19.9111 16.36 19.5671 16.432 19.2311 16.432ZM20.4791 10.648C20.6231 10.648 20.7511 10.624 20.8631 10.576C20.9911 10.528 21.1111 10.472 21.2231 10.408C21.6071 10.136 21.8551 9.78401 21.9671 9.35201C22.0791 8.92001 22.0391 8.59201 21.8471 8.36801C21.8151 8.32001 21.7751 8.28801 21.7271 8.27201C21.6791 8.24001 21.6231 8.22401 21.5591 8.22401C21.3831 8.22401 21.1831 8.28001 20.9591 8.39201C20.7511 8.50401 20.5431 8.66401 20.3351 8.87201C20.1271 9.08001 19.9351 9.32801 19.7591 9.61601L19.4471 10.12C19.4791 10.104 19.5031 10.096 19.5191 10.096C19.5511 10.08 19.5751 10.072 19.5911 10.072C19.7351 10.072 19.8311 10.12 19.8791 10.216C19.9271 10.312 19.9831 10.408 20.0471 10.504C20.1271 10.6 20.2711 10.648 20.4791 10.648Z" fill="#1B1F20"/>
<path d="M13.4231 15.52C12.9431 15.792 12.4311 15.952 11.8871 16C11.3591 16.032 10.8631 15.96 10.3991 15.784C9.93515 15.592 9.55915 15.312 9.27115 14.944C9.11115 14.736 8.95915 14.408 8.81515 13.96C8.67115 13.496 8.64715 12.872 8.74315 12.088C8.83915 11.352 9.06315 10.608 9.41515 9.85601C9.78315 9.10401 10.2311 8.44001 10.7591 7.86401C11.2871 7.28801 11.8631 6.89601 12.4871 6.68801C12.7111 6.60801 12.9351 6.55201 13.1591 6.52001C13.3991 6.47201 13.7111 6.46401 14.0951 6.49601C14.4631 6.54401 14.7911 6.64001 15.0791 6.78401C15.3671 6.91201 15.5751 7.05601 15.7031 7.21601C15.9591 7.47201 16.1271 7.72001 16.2071 7.96001C16.2871 8.20001 16.3191 8.43201 16.3031 8.65601C16.2231 9.16801 15.9911 9.72001 15.6071 10.312C15.2391 10.904 14.7191 11.344 14.0471 11.632C13.7751 11.744 13.4551 11.816 13.0871 11.848C12.7191 11.88 12.2151 11.832 11.5751 11.704C11.1911 11.624 10.9351 11.664 10.8071 11.824C10.6951 11.984 10.6471 12.296 10.6631 12.76C10.6951 13.048 10.7591 13.304 10.8551 13.528C10.9671 13.736 11.1671 13.88 11.4551 13.96C11.8231 14.024 12.0871 14.032 12.2471 13.984C12.4071 13.92 12.6071 13.832 12.8471 13.72C12.9751 13.64 13.0951 13.552 13.2071 13.456C13.3351 13.36 13.4551 13.264 13.5671 13.168C13.6951 13.072 13.7991 13 13.8791 12.952C13.9591 12.888 14.0391 12.848 14.1191 12.832C14.1991 12.816 14.2791 12.808 14.3591 12.808C14.5351 12.824 14.7031 12.92 14.8631 13.096C15.0231 13.272 15.1271 13.44 15.1751 13.6C15.1751 13.728 15.0951 13.912 14.9351 14.152C14.7751 14.376 14.5591 14.616 14.2871 14.872C14.0311 15.112 13.7431 15.328 13.4231 15.52ZM13.1111 10.168C13.2231 10.12 13.3831 10.008 13.5911 9.83201C13.8151 9.65601 14.0151 9.47201 14.1911 9.28001C14.3671 9.07201 14.4551 8.91201 14.4551 8.80001C14.4551 8.62401 14.3351 8.47201 14.0951 8.34401C13.8711 8.21601 13.5751 8.19201 13.2071 8.27201C13.0791 8.30401 12.9271 8.39201 12.7511 8.53601C12.5751 8.68001 12.3991 8.84801 12.2231 9.04001C12.0471 9.21601 11.8951 9.39201 11.7671 9.56801C11.6391 9.72801 11.5511 9.85601 11.5031 9.95201C11.5671 10.032 11.6951 10.096 11.8871 10.144C12.0791 10.192 12.2871 10.216 12.5111 10.216C12.7511 10.216 12.9511 10.2 13.1111 10.168Z" fill="#1B1F20"/>
<path d="M1.67285 16.144C1.12885 15.92 0.728852 15.688 0.472852 15.448C0.232852 15.192 0.136852 14.968 0.184852 14.776C0.216851 14.68 0.272852 14.592 0.352852 14.512C0.432852 14.432 0.608852 14.4 0.880852 14.416C1.16885 14.416 1.60885 14.488 2.20085 14.632C2.37685 14.632 2.55285 14.624 2.72885 14.608C2.90485 14.592 3.06485 14.568 3.20885 14.536C3.36885 14.504 3.49685 14.464 3.59285 14.416C3.67285 14.384 3.69685 14.344 3.66485 14.296C3.63285 14.232 3.57685 14.168 3.49685 14.104C3.43285 14.024 3.36085 13.976 3.28085 13.96C3.20085 13.928 3.12885 13.912 3.06485 13.912C3.03285 13.832 2.96085 13.752 2.84885 13.672C2.75285 13.592 2.63285 13.504 2.48885 13.408C2.13685 13.12 1.81685 12.864 1.52885 12.64C1.24085 12.416 1.12885 12.248 1.19285 12.136C1.19285 12.072 1.19285 12.04 1.19285 12.04C1.19285 12.024 1.19285 12.016 1.19285 12.016C1.08085 12.016 0.976852 11.864 0.880852 11.56C0.784852 11.24 0.736852 10.952 0.736852 10.696C0.736852 10.376 0.800852 10.056 0.928852 9.73602C1.07285 9.41602 1.24885 9.11202 1.45685 8.82402C1.68085 8.53602 1.90485 8.28002 2.12885 8.05602C2.43285 7.76802 2.75285 7.48802 3.08885 7.21602C3.44085 6.92802 3.81685 6.67202 4.21685 6.44802C4.63285 6.22402 5.08885 6.04802 5.58485 5.92002C5.80885 5.87202 6.06485 5.84802 6.35285 5.84802C6.64085 5.84802 6.84885 5.88802 6.97685 5.96802C7.10485 5.88802 7.26485 5.91202 7.45685 6.04002C7.64885 6.15202 7.84085 6.31202 8.03285 6.52002C8.22485 6.72802 8.36885 6.93602 8.46485 7.14402C8.46485 7.33602 8.45685 7.57602 8.44085 7.86402C8.44085 8.13602 8.42485 8.37602 8.39285 8.58402C8.36085 8.79202 8.28885 8.89602 8.17685 8.89602C8.17685 8.89602 8.15285 8.90402 8.10485 8.92002C8.07285 8.92002 8.05685 8.96002 8.05685 9.04002C8.05685 9.20002 7.93685 9.38402 7.69685 9.59202C7.39285 9.80002 7.10485 9.96802 6.83285 10.096C6.56085 10.224 6.35285 10.232 6.20885 10.12C6.11285 10.056 6.02485 9.99202 5.94485 9.92802C5.86485 9.86402 5.79285 9.78402 5.72885 9.68802C5.72885 9.68802 5.70485 9.65602 5.65685 9.59202C5.62485 9.51202 5.60885 9.44002 5.60885 9.37602C5.60885 9.31202 5.63285 9.25602 5.68085 9.20802C5.72885 9.14402 5.75285 9.11202 5.75285 9.11202C5.97685 8.90402 6.14485 8.71202 6.25685 8.53602C6.38485 8.36002 6.47285 8.20802 6.52085 8.08002C6.56885 7.93602 6.59285 7.82402 6.59285 7.74402C6.59285 7.64802 6.56885 7.59202 6.52085 7.57602C6.48885 7.54402 6.40885 7.52802 6.28085 7.52802C6.20085 7.52802 6.02485 7.59202 5.75285 7.72002C5.49685 7.84802 5.22485 8.00802 4.93685 8.20002C4.64885 8.37602 4.42485 8.53602 4.26485 8.68002C4.20085 8.79202 4.15285 8.86402 4.12085 8.89602C4.10485 8.92802 4.06485 8.94402 4.00085 8.94402C4.00085 8.88002 3.96085 8.88802 3.88085 8.96802C3.80085 9.04802 3.70485 9.16002 3.59285 9.30402C3.48085 9.44802 3.36885 9.60002 3.25685 9.76002C3.14485 9.92002 3.05685 10.048 2.99285 10.144C2.97685 10.288 2.93685 10.424 2.87285 10.552C2.82485 10.664 2.80885 10.784 2.82485 10.912C2.84085 11.072 2.92085 11.224 3.06485 11.368C3.20885 11.512 3.41685 11.696 3.68885 11.92C4.24885 12.336 4.66485 12.664 4.93685 12.904C5.22485 13.144 5.42485 13.336 5.53685 13.48C5.64885 13.624 5.72085 13.768 5.75285 13.912C6.02485 14.408 6.05685 14.84 5.84885 15.208C5.64085 15.56 5.32085 15.832 4.88885 16.024C4.72885 16.104 4.44885 16.176 4.04885 16.24C3.64885 16.32 3.22485 16.352 2.77685 16.336C2.34485 16.336 1.97685 16.272 1.67285 16.144Z" fill="#1B1F20"/>
<g clip-path="url(#clip0_917_590)">
<path d="M133.908 79.407C135.614 77.8878 137.298 76.4463 139.178 74.7674C139.742 76.1577 139.352 77.3499 138.615 78.1439C136.404 80.5261 134.116 82.8852 131.64 85.0202C130.229 86.2473 128.746 85.5548 128.396 83.7216C127.769 80.6677 127.32 77.5821 126.794 74.4735C126.762 74.2952 126.702 74.0666 126.775 73.9616C126.988 73.5186 127.306 73.149 127.597 72.729C127.94 72.9991 128.483 73.16 128.597 73.4892C129.024 74.6279 129.323 75.7709 129.672 76.8866C129.873 77.4948 129.998 78.0799 130.688 78.7483C130.987 77.8667 131.336 76.9578 131.635 76.0762C137.021 57.5936 129.722 38.2637 113.528 27.7721C111.432 26.4343 109.219 25.3567 107.05 24.1239C106.292 23.6885 105.585 23.2258 104.827 22.7904C104.845 22.5848 104.94 22.4021 104.958 22.1965C105.491 22.1014 106.12 21.8236 106.613 22.0117C108.269 22.5445 109.925 23.0773 111.513 23.8431C127.341 31.4 137.166 48.5677 135.883 66.7049C135.63 70.1733 134.762 73.5858 134.149 76.9897C134.023 77.7116 133.792 78.3602 133.588 79.0591C133.593 79.1871 133.725 79.3107 133.908 79.407Z" fill="#1B1F20"/>
</g>
<defs>
<clipPath id="clip0_917_590">
<rect width="68" height="22" fill="white" transform="translate(129.578 86.2281) rotate(-118.626)"/>
</clipPath>
</defs>
</svg>
