<svg width="66" height="25" viewBox="0 0 66 25" fill="none" xmlns="http://www.w3.org/2000/svg">
<path fill-rule="evenodd" clip-rule="evenodd" d="M5.45169 22.6753C7.18444 23.6843 9.15846 24.1887 11.3737 24.1887C13.6329 24.1887 15.6179 23.6843 17.3287 22.6753C17.5282 22.5577 17.7225 22.4348 17.9119 22.3068C17.9142 22.3279 17.9155 22.3485 17.9155 22.3686V24.2757H22.8094C22.8094 22.9787 22.5475 21.9529 22.0235 21.1983C21.57 20.5451 21.1325 20.1245 20.5073 19.8143C20.8113 19.4015 21.0897 18.9624 21.3425 18.497C22.3076 16.7204 22.7902 14.6696 22.7902 12.3446C22.7902 10.0197 22.3076 7.96886 21.3425 6.19225C20.3775 4.41563 19.0395 3.02285 17.3287 2.0139C15.6179 1.00496 13.6329 0.500488 11.3737 0.500488C9.15846 0.500488 7.18444 1.00496 5.45169 2.0139C3.74087 3.02285 2.40293 4.41563 1.43785 6.19225C0.472773 7.96886 -0.00976562 10.0197 -0.00976562 12.3446C-0.00976562 14.6476 0.472773 16.6984 1.43785 18.497C2.40293 20.2736 3.74087 21.6664 5.45169 22.6753ZM16.7273 17.7448C16.9901 17.3835 17.2235 16.9872 17.4274 16.5558C17.9977 15.3495 18.2828 13.9458 18.2828 12.3446C18.2828 10.7215 17.9977 9.31778 17.4274 8.13337C16.8571 6.92702 16.0566 5.99484 15.0257 5.33684C13.9948 4.67883 12.7775 4.34983 11.3737 4.34983C9.99193 4.34983 8.78559 4.67883 7.75471 5.33684C6.72384 5.99484 5.92326 6.92702 5.35299 8.13337C4.78272 9.31778 4.49758 10.7215 4.49758 12.3446C4.49758 13.9458 4.78272 15.3495 5.35299 16.5558C5.92326 17.7622 6.72384 18.6944 7.75471 19.3524C8.78559 20.0104 9.99193 20.3394 11.3737 20.3394C12.7775 20.3394 13.9948 20.0104 15.0257 19.3524C15.0461 19.3394 15.0664 19.3263 15.0866 19.313C16.277 20.1572 17.8276 21.5588 17.9119 22.3068C18.921 21.6242 19.7861 20.7934 20.5073 19.8143C20.4102 19.7661 20.3086 19.7206 20.2017 19.6773C18.3719 18.9362 17.3062 18.2143 16.7273 17.7448ZM16.7273 17.7448C16.4774 17.5421 16.3182 17.3864 16.2274 17.2966C16.216 17.2853 16.2045 17.2739 16.1929 17.2624C15.8953 16.9683 15.5039 16.5813 15.3434 16.1048C15.2005 15.586 15.1291 14.8904 15.1291 14.0179H10.0565C10.0565 15.079 10.247 15.9515 10.6281 16.6354C11.0091 17.2956 11.4854 17.7908 12.057 18.121C12.6285 18.4511 13.212 18.6162 13.8074 18.6162C14.0003 18.6162 14.4997 18.8969 15.0866 19.313C15.7228 18.8966 16.2697 18.3738 16.7273 17.7448Z" fill="#1B1F20"/>
<path d="M50.5426 23.9711V7.22879H54.5912V9.96844H55.2C55.5044 9.07552 56.0625 8.34495 56.8742 7.77672C57.686 7.2085 58.7006 6.92439 59.9183 6.92439C61.1156 6.92439 62.1506 7.2085 63.0232 7.77672C63.8958 8.32465 64.5655 9.09581 65.0323 10.0902C65.499 11.0643 65.7324 12.2007 65.7324 13.4995V23.9711H61.6838V14.1083C61.6838 12.911 61.3693 11.9877 60.7402 11.3383C60.111 10.6686 59.2384 10.3337 58.1223 10.3337C56.9249 10.3337 56.032 10.699 55.4435 11.4296C54.8753 12.1602 54.5912 13.1545 54.5912 14.4128V23.9711H50.5426Z" fill="#1B1F20"/>
<path d="M43.5009 23.9714V7.22909H47.5495V23.9714H43.5009ZM45.51 5.55486C44.7186 5.55486 44.0793 5.32149 43.5923 4.85473C43.1255 4.38798 42.8921 3.77917 42.8921 3.0283C42.8921 2.29773 43.1255 1.69907 43.5923 1.23231C44.0793 0.765557 44.7186 0.53218 45.51 0.53218C46.3015 0.53218 46.9306 0.765557 47.3973 1.23231C47.8844 1.69907 48.1279 2.29773 48.1279 3.0283C48.1279 3.77917 47.8844 4.38798 47.3973 4.85473C46.9306 5.32149 46.3015 5.55486 45.51 5.55486Z" fill="#1B1F20"/>
<path d="M31.2027 24.2757C30.0054 24.2757 28.9704 23.9916 28.0978 23.4233C27.2454 22.8551 26.5859 22.084 26.1191 21.1099C25.6727 20.1155 25.4494 18.979 25.4494 17.7005V7.22899H29.498V17.0613C29.498 18.2383 29.7923 19.1718 30.3808 19.8618C30.9896 20.5315 31.8521 20.8663 32.9682 20.8663C34.1656 20.8663 35.0483 20.5011 35.6166 19.7705C36.1848 19.0196 36.4689 18.0151 36.4689 16.7569V7.22899H40.5175V23.9713H36.4689V21.2316H35.8601C35.5354 22.1042 34.9773 22.8348 34.1859 23.4233C33.4147 23.9916 32.4203 24.2757 31.2027 24.2757Z" fill="#1B1F20"/>
</svg>
