<svg width="153" height="77" viewBox="0 0 153 77" fill="none" xmlns="http://www.w3.org/2000/svg">
<path d="M147.316 38.144C147.092 38.08 146.868 37.968 146.644 37.808C146.42 37.648 146.188 37.464 145.948 37.256C145.756 37 145.62 36.768 145.54 36.56C145.46 36.336 145.412 36.08 145.396 35.792C145.396 35.488 145.396 35.104 145.396 34.64C145.396 34.448 145.428 34.176 145.492 33.824C145.572 33.472 145.652 33.104 145.732 32.72C145.828 32.336 145.916 32 145.996 31.712C146.076 31.408 146.124 31.208 146.14 31.112C146.188 30.904 146.108 30.784 145.9 30.752C145.692 30.72 145.46 30.712 145.204 30.728C144.964 30.728 144.804 30.704 144.724 30.656C144.66 30.64 144.628 30.56 144.628 30.416C144.628 30.256 144.628 30.176 144.628 30.176C144.628 30.112 144.596 30.072 144.532 30.056C144.468 30.024 144.412 29.968 144.364 29.888C144.332 29.824 144.372 29.704 144.484 29.528C144.596 29.352 144.74 29.248 144.916 29.216C145.06 29.184 145.276 29.16 145.564 29.144C145.852 29.112 146.14 29.056 146.428 28.976C146.732 28.88 146.964 28.736 147.124 28.544C147.268 28.192 147.428 27.816 147.604 27.416C147.78 27 147.948 26.64 148.108 26.336C148.268 26.016 148.38 25.816 148.444 25.736C148.716 25.592 148.996 25.536 149.284 25.568C149.572 25.584 149.796 25.72 149.956 25.976C150.036 26.088 150.1 26.168 150.148 26.216C150.212 26.264 150.236 26.336 150.22 26.432C150.22 26.528 150.156 26.704 150.028 26.96C149.916 27.2 149.724 27.576 149.452 28.088C149.372 28.248 149.3 28.392 149.236 28.52C149.172 28.632 149.14 28.688 149.14 28.688C149.204 28.704 149.3 28.712 149.428 28.712C149.556 28.712 149.716 28.704 149.908 28.688C150.084 28.656 150.276 28.632 150.484 28.616C150.692 28.584 150.876 28.584 151.036 28.616C151.404 28.616 151.676 28.72 151.852 28.928C152.028 29.136 152.124 29.4 152.14 29.72C152.172 29.896 152.108 30.048 151.948 30.176C151.788 30.304 151.492 30.368 151.06 30.368C150.916 30.368 150.708 30.376 150.436 30.392C150.164 30.408 149.884 30.424 149.596 30.44C149.308 30.456 149.06 30.48 148.852 30.512C148.66 30.528 148.564 30.552 148.564 30.584C148.516 30.616 148.436 30.744 148.324 30.968C148.228 31.176 148.124 31.432 148.012 31.736C147.916 32.04 147.828 32.328 147.748 32.6C147.636 33.144 147.556 33.672 147.508 34.184C147.46 34.696 147.452 35.144 147.484 35.528C147.532 35.896 147.628 36.16 147.772 36.32C147.916 36.464 148.132 36.464 148.42 36.32C148.724 36.16 149.004 35.976 149.26 35.768C149.548 35.528 149.796 35.456 150.004 35.552C150.212 35.632 150.34 35.808 150.388 36.08C150.452 36.336 150.38 36.616 150.172 36.92C149.98 37.224 149.708 37.48 149.356 37.688C149.004 37.896 148.644 38.04 148.276 38.12C147.908 38.216 147.588 38.224 147.316 38.144Z" fill="#1B1F20"/>
<path d="M138.357 38.096C137.893 38.176 137.429 38.136 136.965 37.976C136.517 37.816 136.141 37.56 135.837 37.208C135.549 36.84 135.405 36.4 135.405 35.888C135.357 35.408 135.397 34.84 135.525 34.184C135.669 33.512 135.877 32.84 136.149 32.168C136.437 31.496 136.765 30.928 137.133 30.464C137.453 30.08 137.773 29.728 138.093 29.408C138.413 29.088 138.701 28.872 138.957 28.76C139.181 28.664 139.453 28.592 139.773 28.544C140.109 28.48 140.341 28.448 140.469 28.448C140.725 28.512 141.005 28.616 141.309 28.76C141.629 28.904 141.789 29.072 141.789 29.264C141.789 29.264 141.805 29.288 141.837 29.336C141.885 29.368 141.909 29.384 141.909 29.384C142.005 29.384 142.109 29.504 142.221 29.744C142.349 29.968 142.445 30.232 142.509 30.536C142.573 30.824 142.557 31.056 142.461 31.232C142.397 31.536 142.269 31.832 142.077 32.12C141.901 32.408 141.749 32.552 141.621 32.552C141.557 32.552 141.493 32.56 141.429 32.576C141.381 32.576 141.357 32.616 141.357 32.696C141.357 32.776 141.269 32.816 141.093 32.816C140.933 32.816 140.765 32.784 140.589 32.72C140.413 32.656 140.301 32.56 140.253 32.432C140.253 32.352 140.269 32.248 140.301 32.12C140.333 31.992 140.381 31.776 140.445 31.472C140.541 31.024 140.549 30.728 140.469 30.584C140.389 30.424 140.189 30.408 139.869 30.536C139.469 30.76 139.141 31.024 138.885 31.328C138.629 31.616 138.397 32.024 138.189 32.552C137.997 33.08 137.781 33.816 137.541 34.76C137.445 35.128 137.429 35.416 137.493 35.624C137.573 35.832 137.637 35.944 137.685 35.96C137.909 36.024 138.149 36.04 138.405 36.008C138.677 35.96 138.901 35.888 139.077 35.792C139.333 35.664 139.557 35.528 139.749 35.384C139.957 35.224 140.181 35.056 140.421 34.88C140.501 34.832 140.573 34.744 140.637 34.616C140.701 34.472 140.797 34.368 140.925 34.304C141.053 34.112 141.213 34.016 141.405 34.016C141.613 34 141.813 33.992 142.005 33.992C142.133 34.024 142.269 34.104 142.413 34.232C142.557 34.36 142.661 34.488 142.725 34.616C142.805 34.728 142.797 34.808 142.701 34.856C142.637 34.856 142.597 34.88 142.581 34.928C142.581 34.96 142.581 34.976 142.581 34.976C142.613 35.04 142.541 35.184 142.365 35.408C142.205 35.632 141.997 35.872 141.741 36.128C141.485 36.384 141.237 36.608 140.997 36.8C140.773 36.976 140.613 37.064 140.517 37.064C140.357 37.064 140.277 37.112 140.277 37.208C140.277 37.24 140.157 37.32 139.917 37.448C139.693 37.576 139.429 37.704 139.125 37.832C138.837 37.96 138.581 38.048 138.357 38.096Z" fill="#1B1F20"/>
<path d="M132.071 37.52C131.591 37.792 131.079 37.952 130.535 38C130.007 38.032 129.511 37.96 129.047 37.784C128.583 37.592 128.207 37.312 127.919 36.944C127.759 36.736 127.607 36.408 127.463 35.96C127.319 35.496 127.295 34.872 127.391 34.088C127.487 33.352 127.711 32.608 128.063 31.856C128.431 31.104 128.879 30.44 129.407 29.864C129.935 29.288 130.511 28.896 131.135 28.688C131.359 28.608 131.583 28.552 131.807 28.52C132.047 28.472 132.359 28.464 132.743 28.496C133.111 28.544 133.439 28.64 133.727 28.784C134.015 28.912 134.223 29.056 134.351 29.216C134.607 29.472 134.775 29.72 134.855 29.96C134.935 30.2 134.967 30.432 134.951 30.656C134.871 31.168 134.639 31.72 134.255 32.312C133.887 32.904 133.367 33.344 132.695 33.632C132.423 33.744 132.103 33.816 131.735 33.848C131.367 33.88 130.863 33.832 130.223 33.704C129.839 33.624 129.583 33.664 129.455 33.824C129.343 33.984 129.295 34.296 129.311 34.76C129.343 35.048 129.407 35.304 129.503 35.528C129.615 35.736 129.815 35.88 130.103 35.96C130.471 36.024 130.735 36.032 130.895 35.984C131.055 35.92 131.255 35.832 131.495 35.72C131.623 35.64 131.743 35.552 131.855 35.456C131.983 35.36 132.103 35.264 132.215 35.168C132.343 35.072 132.447 35 132.527 34.952C132.607 34.888 132.687 34.848 132.767 34.832C132.847 34.816 132.927 34.808 133.007 34.808C133.183 34.824 133.351 34.92 133.511 35.096C133.671 35.272 133.775 35.44 133.823 35.6C133.823 35.728 133.743 35.912 133.583 36.152C133.423 36.376 133.207 36.616 132.935 36.872C132.679 37.112 132.391 37.328 132.071 37.52ZM131.759 32.168C131.871 32.12 132.031 32.008 132.239 31.832C132.463 31.656 132.663 31.472 132.839 31.28C133.015 31.072 133.103 30.912 133.103 30.8C133.103 30.624 132.983 30.472 132.743 30.344C132.519 30.216 132.223 30.192 131.855 30.272C131.727 30.304 131.575 30.392 131.399 30.536C131.223 30.68 131.047 30.848 130.871 31.04C130.695 31.216 130.543 31.392 130.415 31.568C130.287 31.728 130.199 31.856 130.151 31.952C130.215 32.032 130.343 32.096 130.535 32.144C130.727 32.192 130.935 32.216 131.159 32.216C131.399 32.216 131.599 32.2 131.759 32.168Z" fill="#1B1F20"/>
<path d="M117.67 37.184C117.606 37.184 117.454 37.128 117.214 37.016C116.974 36.888 116.822 36.792 116.758 36.728C116.646 36.6 116.574 36.464 116.542 36.32C116.51 36.16 116.494 35.856 116.494 35.408C116.494 34.896 116.598 34.32 116.806 33.68C117.014 33.024 117.366 32.152 117.862 31.064L118.846 29.072C118.926 28.96 118.998 28.864 119.062 28.784C119.126 28.688 119.198 28.6 119.278 28.52C119.31 28.52 119.35 28.52 119.398 28.52C119.462 28.52 119.51 28.528 119.542 28.544C119.686 28.56 119.91 28.648 120.214 28.808C120.534 28.968 120.726 29.208 120.79 29.528C120.79 29.736 120.758 29.984 120.694 30.272C120.63 30.544 120.438 30.904 120.118 31.352C119.99 31.512 119.862 31.744 119.734 32.048C119.622 32.352 119.518 32.64 119.422 32.912C119.406 32.944 119.358 33.024 119.278 33.152C119.214 33.264 119.15 33.384 119.086 33.512C119.022 33.624 118.99 33.696 118.99 33.728L118.894 33.944L119.926 32.936C120.646 32.216 121.254 31.704 121.75 31.4C122.246 31.096 122.662 30.968 122.998 31.016C123.35 31.064 123.63 31.264 123.838 31.616C123.95 31.776 124.03 31.952 124.078 32.144C124.126 32.32 124.158 32.528 124.174 32.768C124.19 33.008 124.182 33.312 124.15 33.68V35.048C124.454 34.968 124.686 34.904 124.846 34.856C125.006 34.792 125.166 34.736 125.326 34.688C125.454 34.656 125.582 34.624 125.71 34.592C125.854 34.56 126.03 34.536 126.238 34.52C126.222 34.728 126.134 34.984 125.974 35.288C125.814 35.592 125.614 35.896 125.374 36.2C125.15 36.504 124.902 36.76 124.63 36.968C124.374 37.176 124.134 37.28 123.91 37.28C123.702 37.28 123.462 37.216 123.19 37.088C122.918 36.944 122.686 36.672 122.494 36.272C122.43 36.064 122.366 35.824 122.302 35.552C122.238 35.28 122.206 34.992 122.206 34.688V33.632C122.206 33.536 122.198 33.472 122.182 33.44C122.182 33.392 122.174 33.368 122.158 33.368C122.094 33.368 121.886 33.536 121.534 33.872C121.198 34.208 120.854 34.56 120.502 34.928C119.766 35.696 119.15 36.264 118.654 36.632C118.174 37 117.846 37.184 117.67 37.184Z" fill="#1B1F20"/>
<path d="M113.063 37.904C112.823 37.904 112.591 37.832 112.367 37.688C112.143 37.528 111.959 37.312 111.815 37.04C111.671 36.752 111.599 36.416 111.599 36.032C111.599 35.792 111.639 35.456 111.719 35.024C111.815 34.576 111.951 34.016 112.127 33.344C112.159 33.12 112.183 32.976 112.199 32.912C112.231 32.848 112.247 32.784 112.247 32.72C112.247 32.688 112.239 32.664 112.223 32.648C112.223 32.616 112.207 32.6 112.175 32.6C112.047 32.6 111.871 32.688 111.647 32.864C111.439 33.024 111.199 33.216 110.927 33.44C110.879 33.472 110.823 33.512 110.759 33.56C110.711 33.608 110.655 33.656 110.591 33.704C110.543 33.752 110.487 33.8 110.423 33.848C110.263 33.944 110.015 34.128 109.679 34.4C109.359 34.672 109.023 34.96 108.671 35.264C108.335 35.568 108.039 35.824 107.783 36.032C107.655 36.128 107.543 36.208 107.447 36.272C107.367 36.336 107.311 36.368 107.279 36.368C107.247 36.368 107.119 36.328 106.895 36.248C106.687 36.152 106.479 36.024 106.271 35.864C106.079 35.688 105.983 35.488 105.983 35.264C105.983 35.12 106.039 34.832 106.151 34.4C106.279 33.968 106.455 33.456 106.679 32.864C106.903 32.272 107.159 31.672 107.447 31.064C107.511 30.92 107.559 30.728 107.591 30.488C107.623 30.248 107.655 30.016 107.687 29.792C107.735 29.552 107.815 29.376 107.927 29.264C107.975 29.184 108.031 29.128 108.095 29.096C108.175 29.048 108.255 29.024 108.335 29.024C108.495 29.024 108.647 29.064 108.791 29.144C108.935 29.208 109.071 29.32 109.199 29.48C109.439 29.736 109.567 30.04 109.583 30.392C109.615 30.728 109.591 31.056 109.511 31.376C109.431 31.696 109.343 31.96 109.247 32.168C109.151 32.36 109.103 32.44 109.103 32.408C109.167 32.376 109.255 32.296 109.367 32.168C109.495 32.04 109.711 31.888 110.015 31.712C110.431 31.392 110.751 31.168 110.975 31.04C111.199 30.896 111.367 30.792 111.479 30.728C111.607 30.664 111.719 30.592 111.815 30.512C111.895 30.448 111.951 30.408 111.983 30.392C112.031 30.376 112.055 30.368 112.055 30.368C112.103 30.368 112.183 30.336 112.295 30.272C112.423 30.208 112.543 30.176 112.655 30.176C112.815 30.176 112.983 30.216 113.159 30.296C113.335 30.36 113.487 30.456 113.615 30.584C113.743 30.696 113.807 30.816 113.807 30.944C113.807 30.992 113.823 31.032 113.855 31.064C113.887 31.096 113.919 31.136 113.951 31.184C114.031 31.28 114.119 31.416 114.215 31.592C114.327 31.752 114.383 32.016 114.383 32.384C114.383 32.64 114.327 33.016 114.215 33.512C114.103 34.008 113.983 34.496 113.855 34.976C113.727 35.472 113.663 35.872 113.663 36.176C113.679 36.464 113.711 36.688 113.759 36.848C113.807 36.992 113.831 37.112 113.831 37.208C113.831 37.336 113.767 37.488 113.639 37.664C113.511 37.824 113.319 37.904 113.063 37.904Z" fill="#1B1F20"/>
<path d="M99.064 38.216C98.856 38.232 98.688 38.208 98.56 38.144C98.432 38.096 98.272 38.016 98.08 37.904C97.728 37.632 97.432 37.296 97.192 36.896C96.968 36.496 96.864 36.16 96.88 35.888C96.912 35.744 96.912 35.616 96.88 35.504C96.864 35.392 96.856 35.336 96.856 35.336C96.76 35.256 96.728 35.208 96.76 35.192C96.792 35.16 96.816 35.112 96.832 35.048C96.96 35.016 96.976 34.928 96.88 34.784C96.832 34.656 96.856 34.368 96.952 33.92C97.064 33.456 97.208 33.024 97.384 32.624C97.464 32.448 97.576 32.216 97.72 31.928C97.88 31.64 98.056 31.352 98.248 31.064C98.44 30.76 98.616 30.52 98.776 30.344C99.128 29.944 99.44 29.616 99.712 29.36C100 29.104 100.32 28.912 100.672 28.784C100.992 28.656 101.312 28.6 101.632 28.616C101.968 28.632 102.264 28.744 102.52 28.952C102.904 29.064 103.248 29.24 103.552 29.48C103.856 29.704 104.064 30.024 104.176 30.44C104.304 30.904 104.344 31.456 104.296 32.096C104.264 32.72 103.992 33.528 103.48 34.52C103.176 35.144 102.872 35.648 102.568 36.032C102.28 36.416 101.928 36.784 101.512 37.136C101.208 37.392 100.816 37.616 100.336 37.808C99.856 38 99.432 38.136 99.064 38.216ZM101.152 34.592C101.36 34.304 101.52 34.024 101.632 33.752C101.76 33.48 101.88 33.104 101.992 32.624C102.04 32.448 102.064 32.232 102.064 31.976C102.08 31.72 102.072 31.488 102.04 31.28C102.024 31.056 101.968 30.936 101.872 30.92C101.664 30.84 101.448 30.84 101.224 30.92C101.016 30.984 100.768 31.176 100.48 31.496C100.224 31.784 100.016 32.056 99.856 32.312C99.712 32.552 99.576 32.848 99.448 33.2C99.336 33.536 99.208 33.976 99.064 34.52C98.936 35.048 98.928 35.472 99.04 35.792C99.168 36.112 99.408 36.2 99.76 36.056C100.112 35.912 100.576 35.424 101.152 34.592Z" fill="#1B1F20"/>
<path d="M90.873 38.096C90.409 38.176 89.945 38.136 89.481 37.976C89.033 37.816 88.657 37.56 88.353 37.208C88.065 36.84 87.921 36.4 87.921 35.888C87.873 35.408 87.913 34.84 88.041 34.184C88.185 33.512 88.393 32.84 88.665 32.168C88.953 31.496 89.281 30.928 89.649 30.464C89.969 30.08 90.289 29.728 90.609 29.408C90.929 29.088 91.217 28.872 91.473 28.76C91.697 28.664 91.969 28.592 92.289 28.544C92.625 28.48 92.857 28.448 92.985 28.448C93.241 28.512 93.521 28.616 93.825 28.76C94.145 28.904 94.305 29.072 94.305 29.264C94.305 29.264 94.321 29.288 94.353 29.336C94.401 29.368 94.425 29.384 94.425 29.384C94.521 29.384 94.625 29.504 94.737 29.744C94.865 29.968 94.961 30.232 95.025 30.536C95.089 30.824 95.073 31.056 94.977 31.232C94.913 31.536 94.785 31.832 94.593 32.12C94.417 32.408 94.265 32.552 94.137 32.552C94.073 32.552 94.009 32.56 93.945 32.576C93.897 32.576 93.873 32.616 93.873 32.696C93.873 32.776 93.785 32.816 93.609 32.816C93.449 32.816 93.281 32.784 93.105 32.72C92.929 32.656 92.817 32.56 92.769 32.432C92.769 32.352 92.785 32.248 92.817 32.12C92.849 31.992 92.897 31.776 92.961 31.472C93.057 31.024 93.065 30.728 92.985 30.584C92.905 30.424 92.705 30.408 92.385 30.536C91.985 30.76 91.657 31.024 91.401 31.328C91.145 31.616 90.913 32.024 90.705 32.552C90.513 33.08 90.297 33.816 90.057 34.76C89.961 35.128 89.945 35.416 90.009 35.624C90.089 35.832 90.153 35.944 90.201 35.96C90.425 36.024 90.665 36.04 90.921 36.008C91.193 35.96 91.417 35.888 91.593 35.792C91.849 35.664 92.073 35.528 92.265 35.384C92.473 35.224 92.697 35.056 92.937 34.88C93.017 34.832 93.089 34.744 93.153 34.616C93.217 34.472 93.313 34.368 93.441 34.304C93.569 34.112 93.729 34.016 93.921 34.016C94.129 34 94.329 33.992 94.521 33.992C94.649 34.024 94.785 34.104 94.929 34.232C95.073 34.36 95.177 34.488 95.241 34.616C95.321 34.728 95.313 34.808 95.217 34.856C95.153 34.856 95.113 34.88 95.097 34.928C95.097 34.96 95.097 34.976 95.097 34.976C95.129 35.04 95.057 35.184 94.881 35.408C94.721 35.632 94.513 35.872 94.257 36.128C94.001 36.384 93.753 36.608 93.513 36.8C93.289 36.976 93.129 37.064 93.033 37.064C92.873 37.064 92.793 37.112 92.793 37.208C92.793 37.24 92.673 37.32 92.433 37.448C92.209 37.576 91.945 37.704 91.641 37.832C91.353 37.96 91.097 38.048 90.873 38.096Z" fill="#1B1F20"/>
<path d="M79.1065 38.144C78.9945 38.208 78.8425 38.184 78.6505 38.072C78.4745 37.96 78.2985 37.792 78.1225 37.568C78.0105 37.376 77.9225 37.184 77.8585 36.992C77.8105 36.784 77.7865 36.48 77.7865 36.08C77.8025 35.76 77.8025 35.544 77.7865 35.432C77.7865 35.304 77.7145 35.296 77.5705 35.408C77.4425 35.504 77.1785 35.744 76.7785 36.128C76.3785 36.528 75.9945 36.872 75.6265 37.16C75.2745 37.432 74.9865 37.56 74.7625 37.544C74.6505 37.544 74.4985 37.472 74.3065 37.328C74.1145 37.184 73.9305 37.008 73.7545 36.8C73.5785 36.576 73.4505 36.368 73.3705 36.176C73.2745 35.792 73.2665 35.296 73.3465 34.688C73.4425 34.08 73.5945 33.448 73.8025 32.792C74.0105 32.12 74.2425 31.496 74.4985 30.92C74.7705 30.328 75.0345 29.856 75.2905 29.504C75.5625 29.136 75.7945 28.96 75.9865 28.976C76.2585 29.008 76.4905 29.144 76.6825 29.384C76.8905 29.608 77.0505 29.856 77.1625 30.128C77.2265 30.24 77.2505 30.336 77.2345 30.416C77.2345 30.496 77.1705 30.592 77.0425 30.704C76.8985 30.896 76.7225 31.176 76.5145 31.544C76.3225 31.896 76.1225 32.28 75.9145 32.696C75.7225 33.112 75.5465 33.512 75.3865 33.896C75.2425 34.264 75.1385 34.568 75.0745 34.808C75.0105 35.048 75.0105 35.168 75.0745 35.168C75.2985 35.168 75.5065 35.112 75.6985 35C75.8905 34.872 76.1305 34.672 76.4185 34.4C76.7545 34.064 77.0505 33.728 77.3065 33.392C77.5625 33.04 77.8265 32.64 78.0985 32.192C78.3065 31.872 78.5225 31.52 78.7465 31.136C78.9865 30.752 79.1385 30.48 79.2025 30.32C79.4265 29.904 79.5945 29.592 79.7065 29.384C79.8185 29.176 79.9545 29.048 80.1145 29C80.1945 29 80.3065 29 80.4505 29C80.5945 29 80.6665 29 80.6665 29C80.7625 29.016 80.8745 29.088 81.0025 29.216C81.1305 29.28 81.2585 29.368 81.3865 29.48C81.5305 29.592 81.6025 29.688 81.6025 29.768C81.5385 29.928 81.4345 30.168 81.2905 30.488C81.1625 30.792 81.0665 31.016 81.0025 31.16C80.6985 31.848 80.4025 32.528 80.1145 33.2C79.8425 33.856 79.6425 34.528 79.5145 35.216C79.4825 35.44 79.4745 35.704 79.4905 36.008C79.5225 36.296 79.5705 36.504 79.6345 36.632C79.6825 36.728 79.7385 36.84 79.8025 36.968C79.8825 37.08 79.9705 37.176 80.0665 37.256C80.2105 37.352 80.2025 37.472 80.0425 37.616C79.8985 37.76 79.7145 37.888 79.4905 38C79.2825 38.096 79.1545 38.144 79.1065 38.144Z" fill="#1B1F20"/>
<path d="M66.2105 37.832C66.0025 37.832 65.8345 37.792 65.7065 37.712C65.5945 37.632 65.4505 37.52 65.2745 37.376C64.9705 37.056 64.7225 36.712 64.5305 36.344C64.3545 35.976 64.2905 35.656 64.3385 35.384C64.3865 35.256 64.4025 35.136 64.3865 35.024C64.3865 34.896 64.3865 34.832 64.3865 34.832C64.3065 34.752 64.2825 34.704 64.3145 34.688C64.3465 34.656 64.3785 34.608 64.4105 34.544C64.5065 34.544 64.5385 34.456 64.5065 34.28C64.4745 34.152 64.5225 33.88 64.6505 33.464C64.7945 33.032 64.9865 32.624 65.2265 32.24C65.3225 32.08 65.4665 31.872 65.6585 31.616C65.8505 31.344 66.0585 31.08 66.2825 30.824C66.5225 30.552 66.7385 30.336 66.9305 30.176C67.3305 29.84 67.6985 29.568 68.0345 29.36C68.3865 29.152 68.7385 29.008 69.0905 28.928C69.4425 28.848 69.8025 28.808 70.1705 28.808C70.5545 28.808 70.8665 28.936 71.1065 29.192C71.4745 29.352 71.7305 29.568 71.8745 29.84C72.0345 30.112 72.1385 30.464 72.1865 30.896C72.2345 31.376 72.1865 31.968 72.0425 32.672C71.8985 33.36 71.5065 34.16 70.8665 35.072C70.4665 35.648 70.0745 36.096 69.6905 36.416C69.3065 36.736 68.8825 37.032 68.4185 37.304C68.0825 37.528 67.7225 37.664 67.3385 37.712C66.9545 37.76 66.5785 37.8 66.2105 37.832ZM68.6585 34.904C69.0105 34.6 69.2585 34.264 69.4025 33.896C69.5625 33.528 69.7305 33.096 69.9065 32.6C69.9705 32.504 70.0105 32.344 70.0265 32.12C70.0585 31.896 70.0665 31.68 70.0505 31.472C70.0345 31.248 69.9785 31.12 69.8825 31.088C69.7385 30.976 69.5945 30.952 69.4505 31.016C69.3065 31.064 69.1225 31.168 68.8985 31.328C68.4185 31.728 67.9705 32.192 67.5545 32.72C67.1545 33.232 66.8745 33.864 66.7145 34.616C66.6665 35.016 66.7065 35.32 66.8345 35.528C66.9785 35.72 67.2025 35.776 67.5065 35.696C67.8265 35.6 68.2105 35.336 68.6585 34.904Z" fill="#1B1F20"/>
<path d="M57.7432 43.712C57.6792 43.728 57.5832 43.704 57.4552 43.64C57.3432 43.576 57.2472 43.464 57.1672 43.304C57.0872 43.144 57.0632 42.936 57.0952 42.68C57.0312 42.456 57.0392 42.176 57.1192 41.84C57.2152 41.52 57.4152 41.04 57.7192 40.4C57.8792 40.144 58.0232 39.84 58.1512 39.488C58.2952 39.136 58.4552 38.784 58.6312 38.432C58.7112 38.288 58.8472 38.04 59.0392 37.688C59.2472 37.336 59.4712 36.92 59.7112 36.44C59.9672 35.944 60.1992 35.432 60.4072 34.904C59.9912 35.336 59.6312 35.744 59.3272 36.128C59.0392 36.496 58.7752 36.792 58.5352 37.016C58.3112 37.224 58.0712 37.32 57.8152 37.304C57.6072 37.256 57.3592 37.12 57.0712 36.896C56.7832 36.672 56.5992 36.424 56.5192 36.152C56.4552 35.8 56.4312 35.352 56.4472 34.808C56.4792 34.264 56.5832 33.44 56.7592 32.336C56.8872 31.792 56.9432 31.376 56.9272 31.088C56.9272 30.784 56.8872 30.56 56.8072 30.416C56.7272 30.272 56.6232 30.144 56.4952 30.032C56.2872 29.84 56.2712 29.632 56.4472 29.408C56.6232 29.184 56.8232 29.016 57.0472 28.904C57.3832 28.824 57.6472 28.808 57.8392 28.856C58.0472 28.888 58.2552 29.024 58.4632 29.264C58.5912 29.472 58.7192 29.696 58.8472 29.936C58.9752 30.176 59.0392 30.52 59.0392 30.968C59.0392 31.16 59.0312 31.376 59.0152 31.616C58.9992 31.84 58.9832 32.048 58.9672 32.24C58.9512 32.432 58.9352 32.584 58.9192 32.696C58.7592 33.288 58.6152 33.8 58.4872 34.232C58.3592 34.664 58.3352 34.88 58.4152 34.88C58.7352 34.624 59.0072 34.376 59.2312 34.136C59.4712 33.896 59.7272 33.608 59.9992 33.272C60.2712 32.936 60.6072 32.496 61.0072 31.952C61.1512 31.68 61.2952 31.416 61.4392 31.16C61.5832 30.904 61.7032 30.64 61.7992 30.368C61.8952 30.16 62.0232 29.944 62.1832 29.72C62.3432 29.48 62.4552 29.352 62.5192 29.336C62.5992 29.304 62.7112 29.312 62.8552 29.36C62.9992 29.408 63.1352 29.464 63.2632 29.528C63.4072 29.576 63.4792 29.616 63.4792 29.648C63.4952 29.664 63.5752 29.68 63.7192 29.696C63.8632 29.712 64.0072 29.728 64.1512 29.744C64.2952 29.744 64.3672 29.768 64.3672 29.816C64.3672 29.848 64.3192 29.968 64.2232 30.176C64.1432 30.384 64.0472 30.616 63.9352 30.872C63.8232 31.128 63.7192 31.36 63.6232 31.568C63.5432 31.76 63.5112 31.872 63.5272 31.904C63.5592 31.936 63.5352 32.056 63.4552 32.264C63.3752 32.456 63.2792 32.672 63.1672 32.912C63.0712 33.152 62.9832 33.368 62.9032 33.56C62.7432 34.088 62.5592 34.616 62.3512 35.144C62.1432 35.656 61.8952 36.168 61.6072 36.68C61.5112 36.872 61.3672 37.168 61.1752 37.568C60.9992 37.968 60.8232 38.36 60.6472 38.744C60.4872 39.144 60.3592 39.448 60.2632 39.656C60.1992 39.784 60.1032 39.984 59.9752 40.256C59.8632 40.544 59.7352 40.856 59.5912 41.192C59.4632 41.528 59.3352 41.84 59.2072 42.128C59.0792 42.432 58.9832 42.664 58.9192 42.824C58.8872 43.128 58.8152 43.352 58.7032 43.496C58.5592 43.64 58.3592 43.712 58.1032 43.712C57.8632 43.712 57.7432 43.712 57.7432 43.712Z" fill="#1B1F20"/>
<path d="M129.847 16.216C129.623 16.088 129.431 15.976 129.271 15.88C129.111 15.768 128.991 15.584 128.911 15.328C128.847 15.072 128.815 14.672 128.815 14.128C128.815 13.84 128.807 13.608 128.791 13.432C128.775 13.256 128.767 13.168 128.767 13.168C128.767 13.168 128.695 13.24 128.551 13.384C128.407 13.528 128.223 13.776 127.999 14.128C127.647 14.784 127.327 15.216 127.039 15.424C126.767 15.632 126.543 15.768 126.367 15.832C126.287 15.864 126.135 15.856 125.911 15.808C125.687 15.744 125.439 15.656 125.167 15.544C124.911 15.432 124.687 15.32 124.495 15.208C124.303 15.096 124.191 14.992 124.159 14.896C124.127 14.816 124.111 14.64 124.111 14.368C124.111 14.08 124.119 13.768 124.135 13.432C124.167 13.08 124.207 12.76 124.255 12.472C124.303 12.168 124.359 11.952 124.423 11.824C124.423 11.776 124.431 11.728 124.447 11.68C124.479 11.616 124.471 11.552 124.423 11.488C124.423 11.488 124.471 11.312 124.567 10.96C124.679 10.608 124.807 10.192 124.951 9.71197C125.111 9.23197 125.255 8.78397 125.383 8.36797C125.527 7.93597 125.631 7.64797 125.695 7.50397C125.695 7.37597 125.711 7.23997 125.743 7.09597C125.791 6.95197 125.815 6.84797 125.815 6.78397C125.815 6.63997 125.895 6.48797 126.055 6.32797C126.279 6.05597 126.511 5.93597 126.751 5.96797C127.007 5.98397 127.215 6.05597 127.375 6.18397C127.535 6.34397 127.663 6.50397 127.759 6.66397C127.871 6.82397 127.927 7.02397 127.927 7.26397C127.927 7.48797 127.847 7.79997 127.687 8.19997C127.527 8.55197 127.367 8.92797 127.207 9.32797C127.047 9.71197 126.903 10.072 126.775 10.408C126.663 10.728 126.583 10.976 126.535 11.152C126.535 11.264 126.511 11.376 126.463 11.488C126.431 11.584 126.415 11.664 126.415 11.728C126.367 11.776 126.335 11.832 126.319 11.896C126.319 11.96 126.319 12.024 126.319 12.088C126.319 12.152 126.295 12.264 126.247 12.424C126.199 12.568 126.175 12.728 126.175 12.904C126.111 13.208 126.119 13.384 126.199 13.432C126.295 13.464 126.407 13.448 126.535 13.384C126.583 13.32 126.655 13.208 126.751 13.048C126.847 12.888 126.951 12.72 127.063 12.544C127.127 12.352 127.191 12.224 127.255 12.16C127.335 12.096 127.399 12.04 127.447 11.992C127.495 11.944 127.519 11.856 127.519 11.728C127.519 11.664 127.591 11.536 127.735 11.344C127.895 11.136 128.063 10.904 128.239 10.648C128.575 10.072 128.783 9.70397 128.863 9.54397C128.991 9.31997 129.119 9.12797 129.247 8.96797C129.391 8.79197 129.519 8.57597 129.631 8.31997C129.695 8.19197 129.783 8.03997 129.895 7.86397C130.007 7.68797 130.151 7.59997 130.327 7.59997C130.503 7.59997 130.615 7.61597 130.663 7.64797C130.727 7.67997 130.783 7.78397 130.831 7.95997C130.959 8.07197 131.087 8.24797 131.215 8.48797C131.359 8.72797 131.431 8.90397 131.431 9.01597C131.367 9.07997 131.327 9.15997 131.311 9.25597C131.311 9.33597 131.311 9.37597 131.311 9.37597C131.311 9.42397 131.279 9.56797 131.215 9.80797C131.167 10.048 131.087 10.28 130.975 10.504C130.847 11.048 130.735 11.584 130.639 12.112C130.559 12.64 130.511 13.08 130.495 13.432C130.495 13.784 130.535 13.992 130.615 14.056C130.711 14.12 130.807 14.056 130.903 13.864C130.999 13.672 131.223 13.312 131.575 12.784C131.655 12.656 131.807 12.448 132.031 12.16C132.255 11.872 132.415 11.616 132.511 11.392C132.511 11.312 132.559 11.184 132.655 11.008C132.751 10.816 132.847 10.616 132.943 10.408C133.039 10.184 133.087 9.99997 133.087 9.85597C133.071 9.82397 133.151 9.67997 133.327 9.42397C133.503 9.16797 133.671 8.83997 133.831 8.43997C134.007 7.99197 134.255 7.69597 134.575 7.55197C134.895 7.40797 135.183 7.39197 135.439 7.50397C135.711 7.59997 135.823 7.78397 135.775 8.05597C135.695 8.59997 135.511 9.23197 135.223 9.95197C134.951 10.656 134.631 11.368 134.263 12.088C133.911 12.792 133.559 13.416 133.207 13.96C133.079 14.072 132.967 14.208 132.871 14.368C132.775 14.512 132.727 14.616 132.727 14.68C132.727 14.712 132.655 14.816 132.511 14.992C132.383 15.168 132.223 15.368 132.031 15.592C131.839 15.8 131.639 15.968 131.431 16.096C131.223 16.256 130.967 16.344 130.663 16.36C130.375 16.376 130.103 16.328 129.847 16.216Z" fill="#1B1F20"/>
<path d="M117.697 16.216C117.489 16.232 117.321 16.208 117.193 16.144C117.065 16.096 116.905 16.016 116.713 15.904C116.361 15.632 116.065 15.296 115.825 14.896C115.601 14.496 115.497 14.16 115.513 13.888C115.545 13.744 115.545 13.616 115.513 13.504C115.497 13.392 115.489 13.336 115.489 13.336C115.393 13.256 115.361 13.208 115.393 13.192C115.425 13.16 115.449 13.112 115.465 13.048C115.593 13.016 115.609 12.928 115.513 12.784C115.465 12.656 115.489 12.368 115.585 11.92C115.697 11.456 115.841 11.024 116.017 10.624C116.097 10.448 116.209 10.216 116.353 9.92798C116.513 9.63998 116.689 9.35198 116.881 9.06398C117.073 8.75998 117.249 8.51998 117.409 8.34398C117.761 7.94398 118.073 7.61598 118.345 7.35998C118.633 7.10398 118.953 6.91198 119.305 6.78398C119.625 6.65598 119.945 6.59998 120.265 6.61598C120.601 6.63198 120.897 6.74398 121.153 6.95198C121.537 7.06398 121.881 7.23998 122.185 7.47998C122.489 7.70398 122.697 8.02398 122.809 8.43998C122.937 8.90398 122.977 9.45598 122.929 10.096C122.897 10.72 122.625 11.528 122.113 12.52C121.809 13.144 121.505 13.648 121.201 14.032C120.913 14.416 120.561 14.784 120.145 15.136C119.841 15.392 119.449 15.616 118.969 15.808C118.489 16 118.065 16.136 117.697 16.216ZM119.785 12.592C119.993 12.304 120.153 12.024 120.265 11.752C120.393 11.48 120.513 11.104 120.625 10.624C120.673 10.448 120.697 10.232 120.697 9.97598C120.713 9.71998 120.705 9.48798 120.673 9.27998C120.657 9.05598 120.601 8.93598 120.505 8.91998C120.297 8.83998 120.081 8.83998 119.857 8.91998C119.649 8.98398 119.401 9.17598 119.113 9.49598C118.857 9.78398 118.649 10.056 118.489 10.312C118.345 10.552 118.209 10.848 118.081 11.2C117.969 11.536 117.841 11.976 117.697 12.52C117.569 13.048 117.561 13.472 117.673 13.792C117.801 14.112 118.041 14.2 118.393 14.056C118.745 13.912 119.209 13.424 119.785 12.592Z" fill="#1B1F20"/>
<path d="M104.937 15.088C104.825 15.104 104.697 15.064 104.553 14.968C104.425 14.856 104.305 14.76 104.193 14.68C104.033 14.488 103.921 14.32 103.857 14.176C103.793 14.032 103.761 13.872 103.761 13.696C103.761 13.52 103.777 13.312 103.809 13.072C103.889 12.816 103.985 12.472 104.097 12.04C104.209 11.608 104.345 11.144 104.505 10.648C104.537 10.456 104.593 10.232 104.673 9.97599C104.769 9.70399 104.865 9.44799 104.961 9.20799C105.057 8.95199 105.129 8.75999 105.177 8.63199C105.289 8.23199 105.401 7.84799 105.513 7.47999C105.641 7.11199 105.793 6.68799 105.969 6.20799C106.145 5.72799 106.361 5.11999 106.617 4.38399C106.969 3.42399 107.233 2.70399 107.409 2.22399C107.585 1.74399 107.713 1.39999 107.793 1.19199C107.873 0.983985 107.929 0.815986 107.961 0.687986C107.961 0.559986 108.049 0.439986 108.225 0.327985C108.417 0.199986 108.585 0.135986 108.729 0.135986C108.953 0.151986 109.169 0.287986 109.377 0.543985C109.585 0.783986 109.729 1.07999 109.809 1.43199C109.889 1.76799 109.833 2.09599 109.641 2.41599C109.385 2.99199 109.129 3.63999 108.873 4.35999C108.633 5.06399 108.393 5.76799 108.153 6.47199C107.913 7.17599 107.673 7.82399 107.433 8.41599C107.417 8.49599 107.361 8.63199 107.265 8.82399C107.185 9.01599 107.113 9.17599 107.049 9.30399C106.985 9.43199 106.921 9.55199 106.857 9.66399C106.809 9.77599 106.785 9.83199 106.785 9.83199C106.769 9.92799 106.737 10.064 106.689 10.24C106.641 10.416 106.593 10.568 106.545 10.696C106.529 10.776 106.505 10.88 106.473 11.008C106.441 11.136 106.417 11.264 106.401 11.392C106.481 11.296 106.593 11.184 106.737 11.056C106.881 10.912 107.065 10.736 107.289 10.528C107.545 10.304 107.769 10.112 107.961 9.95199C108.153 9.79199 108.345 9.64799 108.537 9.51999C108.713 9.39199 108.873 9.27199 109.017 9.15999C109.177 9.04799 109.257 8.99199 109.257 8.99199C109.289 8.94399 109.321 8.88799 109.353 8.82399C109.401 8.75999 109.449 8.71999 109.497 8.70399C109.529 8.67199 109.585 8.63199 109.665 8.58399C109.745 8.51999 109.825 8.45599 109.905 8.39199C110.049 8.29599 110.201 8.21599 110.361 8.15199C110.521 8.08799 110.689 8.03999 110.865 8.00799C111.041 7.97599 111.209 7.95999 111.369 7.95999C111.561 7.95999 111.761 8.03999 111.969 8.19999C112.177 8.34399 112.369 8.55199 112.545 8.82399C112.705 9.03199 112.801 9.27999 112.833 9.56799C112.881 9.83999 112.889 10.208 112.857 10.672C112.857 10.8 112.817 11.04 112.737 11.392C112.673 11.744 112.625 12.008 112.593 12.184L112.377 13H112.569C112.745 12.936 112.913 12.928 113.073 12.976C113.249 13.024 113.337 13.048 113.337 13.048C113.417 13.096 113.489 13.152 113.553 13.216C113.633 13.28 113.705 13.328 113.769 13.36C113.865 13.488 113.849 13.672 113.721 13.912C113.593 14.152 113.449 14.32 113.289 14.416C112.905 14.672 112.561 14.832 112.257 14.896C111.969 14.96 111.665 14.904 111.345 14.728C111.041 14.52 110.833 14.272 110.721 13.984C110.625 13.696 110.585 13.304 110.601 12.808C110.665 12.104 110.705 11.6 110.721 11.296C110.737 10.976 110.657 10.816 110.481 10.816C110.289 10.816 110.025 10.912 109.689 11.104C109.369 11.28 109.009 11.528 108.609 11.848C108.209 12.152 107.809 12.496 107.409 12.88C107.025 13.248 106.681 13.624 106.377 14.008C106.185 14.248 105.977 14.488 105.753 14.728C105.529 14.952 105.257 15.072 104.937 15.088Z" fill="#1B1F20"/>
<path d="M88.4201 15.184C88.3561 15.184 88.2041 15.128 87.9641 15.016C87.7241 14.888 87.5721 14.792 87.5081 14.728C87.3961 14.6 87.3241 14.464 87.2921 14.32C87.2601 14.16 87.2441 13.856 87.2441 13.408C87.2441 12.896 87.3481 12.32 87.5561 11.68C87.7641 11.024 88.1161 10.152 88.6121 9.06399L89.5961 7.07199C89.6761 6.95999 89.7481 6.86399 89.8121 6.78399C89.8761 6.68799 89.9481 6.59999 90.0281 6.51999C90.0601 6.51999 90.1001 6.51999 90.1481 6.51999C90.2121 6.51999 90.2601 6.52799 90.2921 6.54399C90.4361 6.55999 90.6601 6.64799 90.9641 6.80799C91.2841 6.96799 91.4761 7.20799 91.5401 7.52799C91.5401 7.73599 91.5081 7.98399 91.4441 8.27199C91.3801 8.54399 91.1881 8.90399 90.8681 9.35199C90.7401 9.51199 90.6121 9.74399 90.4841 10.048C90.3721 10.352 90.2681 10.64 90.1721 10.912C90.1561 10.944 90.1081 11.024 90.0281 11.152C89.9641 11.264 89.9001 11.384 89.8361 11.512C89.7721 11.624 89.7401 11.696 89.7401 11.728L89.6441 11.944L90.6761 10.936C91.3961 10.216 92.0041 9.70399 92.5001 9.39999C92.9961 9.09599 93.4121 8.96799 93.7481 9.01599C94.1001 9.06399 94.3801 9.26399 94.5881 9.61599C94.7001 9.77599 94.7801 9.95199 94.8281 10.144C94.8761 10.32 94.9081 10.528 94.9241 10.768C94.9401 11.008 94.9321 11.312 94.9001 11.68V13.048C95.2041 12.968 95.4361 12.904 95.5961 12.856C95.7561 12.792 95.9161 12.736 96.0761 12.688C96.2041 12.656 96.3321 12.624 96.4601 12.592C96.6041 12.56 96.7801 12.536 96.9881 12.52C96.9721 12.728 96.8841 12.984 96.7241 13.288C96.5641 13.592 96.3641 13.896 96.1241 14.2C95.9001 14.504 95.6521 14.76 95.3801 14.968C95.1241 15.176 94.8841 15.28 94.6601 15.28C94.4521 15.28 94.2121 15.216 93.9401 15.088C93.6681 14.944 93.4361 14.672 93.2441 14.272C93.1801 14.064 93.1161 13.824 93.0521 13.552C92.9881 13.28 92.9561 12.992 92.9561 12.688V11.632C92.9561 11.536 92.9481 11.472 92.9321 11.44C92.9321 11.392 92.9241 11.368 92.9081 11.368C92.8441 11.368 92.6361 11.536 92.2841 11.872C91.9481 12.208 91.6041 12.56 91.2521 12.928C90.5161 13.696 89.9001 14.264 89.4041 14.632C88.9241 15 88.5961 15.184 88.4201 15.184Z" fill="#1B1F20"/>
<path d="M80.4441 15.496C80.3961 15.512 80.2921 15.504 80.1321 15.472C79.9881 15.44 79.8361 15.4 79.6761 15.352C79.5321 15.304 79.4441 15.264 79.4121 15.232C79.3481 15.168 79.2601 15.056 79.1481 14.896C79.0361 14.72 78.9721 14.488 78.9561 14.2C78.9561 13.912 79.0921 13.568 79.3641 13.168C79.4441 13.008 79.5401 12.768 79.6521 12.448C79.7641 12.128 79.8761 11.792 79.9881 11.44C80.1161 11.072 80.2281 10.744 80.3241 10.456C80.4361 10.168 80.5161 9.96797 80.5641 9.85597C80.5961 9.58397 80.5801 9.39197 80.5161 9.27997C80.4681 9.15197 80.3321 9.07997 80.1081 9.06397C79.9481 9.06397 79.8201 9.00797 79.7241 8.89597C79.6441 8.78397 79.6041 8.58397 79.6041 8.29597C79.6361 8.07197 79.6921 7.87997 79.7721 7.71997C79.8681 7.54397 79.9961 7.39997 80.1561 7.28797C80.3161 7.20797 80.5161 7.15197 80.7561 7.11997C81.0121 7.08797 81.2601 7.07997 81.5001 7.09597C81.7401 7.11197 81.9081 7.16797 82.0041 7.26397C82.1161 7.32797 82.2041 7.47197 82.2681 7.69597C82.3481 7.90397 82.4121 8.11997 82.4601 8.34397C82.5081 8.56797 82.5401 8.73597 82.5561 8.84797C82.7161 8.71997 82.8921 8.54397 83.0841 8.31997C83.2921 8.07997 83.5001 7.85597 83.7081 7.64797C83.9641 7.47197 84.2681 7.29597 84.6201 7.11997C84.9721 6.92797 85.2281 6.83197 85.3881 6.83197C85.5641 6.83197 85.7801 6.91997 86.0361 7.09597C86.2921 7.25597 86.4521 7.39997 86.5161 7.52797C86.6761 7.79997 86.7881 8.08797 86.8521 8.39197C86.9321 8.67997 86.8841 8.93597 86.7081 9.15997C86.5481 9.36797 86.3241 9.57597 86.0361 9.78397C85.7481 9.97597 85.3881 10.032 84.9561 9.95197C84.8601 9.91997 84.7561 9.79997 84.6441 9.59197C84.5481 9.38397 84.4921 9.23197 84.4761 9.13597C84.4761 9.08797 84.4041 9.13597 84.2601 9.27997C84.1321 9.40797 83.9721 9.56797 83.7801 9.75997C83.6041 9.95197 83.4361 10.128 83.2761 10.288C83.0041 10.624 82.7161 11.08 82.4121 11.656C82.1081 12.232 81.7481 12.928 81.3321 13.744C81.1401 14.144 80.9801 14.528 80.8521 14.896C80.7241 15.248 80.5881 15.448 80.4441 15.496Z" fill="#1B1F20"/>
<path d="M70.8167 15.664C70.6887 15.696 70.5207 15.712 70.3127 15.712C70.1047 15.696 69.9207 15.672 69.7607 15.64C69.6167 15.592 69.5447 15.544 69.5447 15.496C69.5447 15.416 69.5047 15.376 69.4247 15.376C69.4247 15.376 69.3367 15.312 69.1607 15.184C68.9847 15.04 68.8247 14.936 68.6807 14.872C68.5367 14.648 68.4407 14.392 68.3927 14.104C68.3607 13.8 68.4567 13.272 68.6807 12.52C68.6967 12.008 68.8407 11.472 69.1127 10.912C69.3847 10.336 69.7287 9.776 70.1447 9.232C70.5607 8.688 70.9927 8.208 71.4407 7.792C71.8887 7.36 72.2887 7.04 72.6407 6.832C72.8647 6.608 73.1607 6.488 73.5287 6.472C73.9127 6.456 74.2487 6.528 74.5367 6.688C74.6967 6.768 74.8727 6.928 75.0647 7.168C75.2567 7.408 75.4407 7.664 75.6167 7.936C75.7927 8.192 75.9287 8.424 76.0247 8.632C76.0727 8.808 76.1127 8.968 76.1447 9.112C76.1927 9.24 76.2247 9.4 76.2407 9.592C76.2567 9.784 76.2407 10.072 76.1927 10.456C76.1127 10.744 76.0407 11.04 75.9767 11.344C75.9287 11.632 75.9047 11.928 75.9047 12.232C75.8727 12.536 75.9047 12.752 76.0007 12.88C76.1127 13.008 76.2727 13.016 76.4807 12.904C76.6727 12.808 76.8727 12.8 77.0807 12.88C77.2887 12.944 77.4327 13.072 77.5127 13.264C77.6087 13.44 77.5847 13.672 77.4407 13.96C77.3447 14.168 77.1927 14.368 76.9847 14.56C76.7767 14.752 76.5447 14.912 76.2887 15.04C76.0327 15.152 75.7847 15.208 75.5447 15.208C75.3687 15.208 75.1927 15.144 75.0167 15.016C74.8407 14.872 74.6807 14.68 74.5367 14.44C74.3927 14.2 74.2727 13.936 74.1767 13.648L74.0327 13.096L73.1687 13.888C72.9607 14.112 72.7527 14.32 72.5447 14.512C72.3527 14.688 72.2327 14.816 72.1847 14.896C72.1047 15.04 71.9447 15.168 71.7047 15.28C71.4807 15.392 71.1847 15.52 70.8167 15.664ZM71.4647 13.36C71.7367 13.2 71.9687 13.008 72.1607 12.784C72.3687 12.56 72.5687 12.312 72.7607 12.04C72.9527 11.752 73.1607 11.448 73.3847 11.128C73.6567 10.76 73.8487 10.464 73.9607 10.24C74.0887 10.016 74.1847 9.776 74.2487 9.52C74.1847 9.344 74.0967 9.16 73.9847 8.968C73.8727 8.76 73.7607 8.648 73.6487 8.632C73.4247 8.632 73.1527 8.768 72.8327 9.04C72.5287 9.312 72.1927 9.704 71.8247 10.216C71.7607 10.296 71.6807 10.424 71.5847 10.6C71.4887 10.776 71.3927 10.944 71.2967 11.104C71.2167 11.248 71.1607 11.344 71.1287 11.392C71.0807 11.456 71.0087 11.608 70.9127 11.848C70.8327 12.072 70.7607 12.304 70.6967 12.544C70.6327 12.768 70.6007 12.928 70.6007 13.024C70.6007 13.12 70.6087 13.224 70.6247 13.336C70.6567 13.448 70.7367 13.52 70.8647 13.552C70.9927 13.584 71.1927 13.52 71.4647 13.36Z" fill="#1B1F20"/>
<path d="M65.2972 15.52C64.8172 15.792 64.3052 15.952 63.7612 16C63.2332 16.032 62.7372 15.96 62.2732 15.784C61.8092 15.592 61.4332 15.312 61.1452 14.944C60.9852 14.736 60.8332 14.408 60.6892 13.96C60.5452 13.496 60.5212 12.872 60.6172 12.088C60.7132 11.352 60.9372 10.608 61.2892 9.85598C61.6572 9.10398 62.1052 8.43998 62.6332 7.86398C63.1612 7.28798 63.7372 6.89598 64.3612 6.68798C64.5852 6.60798 64.8092 6.55198 65.0332 6.51998C65.2732 6.47198 65.5852 6.46398 65.9692 6.49598C66.3372 6.54398 66.6652 6.63998 66.9532 6.78398C67.2412 6.91198 67.4492 7.05598 67.5772 7.21598C67.8332 7.47198 68.0012 7.71998 68.0812 7.95998C68.1612 8.19998 68.1932 8.43198 68.1772 8.65598C68.0972 9.16798 67.8652 9.71998 67.4812 10.312C67.1132 10.904 66.5932 11.344 65.9212 11.632C65.6492 11.744 65.3292 11.816 64.9612 11.848C64.5932 11.88 64.0892 11.832 63.4492 11.704C63.0652 11.624 62.8092 11.664 62.6812 11.824C62.5692 11.984 62.5212 12.296 62.5372 12.76C62.5692 13.048 62.6332 13.304 62.7292 13.528C62.8412 13.736 63.0412 13.88 63.3292 13.96C63.6972 14.024 63.9612 14.032 64.1212 13.984C64.2812 13.92 64.4812 13.832 64.7212 13.72C64.8492 13.64 64.9692 13.552 65.0812 13.456C65.2092 13.36 65.3292 13.264 65.4412 13.168C65.5692 13.072 65.6732 13 65.7532 12.952C65.8332 12.888 65.9132 12.848 65.9932 12.832C66.0732 12.816 66.1532 12.808 66.2332 12.808C66.4092 12.824 66.5772 12.92 66.7372 13.096C66.8972 13.272 67.0012 13.44 67.0492 13.6C67.0492 13.728 66.9692 13.912 66.8092 14.152C66.6492 14.376 66.4332 14.616 66.1612 14.872C65.9052 15.112 65.6172 15.328 65.2972 15.52ZM64.9852 10.168C65.0972 10.12 65.2572 10.008 65.4652 9.83198C65.6892 9.65598 65.8892 9.47198 66.0652 9.27998C66.2412 9.07198 66.3292 8.91198 66.3292 8.79998C66.3292 8.62398 66.2092 8.47198 65.9692 8.34398C65.7452 8.21598 65.4492 8.19198 65.0812 8.27198C64.9532 8.30398 64.8012 8.39198 64.6252 8.53598C64.4492 8.67998 64.2732 8.84798 64.0972 9.03998C63.9212 9.21598 63.7692 9.39198 63.6412 9.56798C63.5132 9.72798 63.4252 9.85598 63.3772 9.95198C63.4412 10.032 63.5692 10.096 63.7612 10.144C63.9532 10.192 64.1612 10.216 64.3852 10.216C64.6252 10.216 64.8252 10.2 64.9852 10.168Z" fill="#1B1F20"/>
<path d="M57.4071 16.264C57.1031 16.344 56.8311 16.256 56.5911 16C56.3511 15.76 56.1831 15.4 56.0871 14.92C55.9911 14.44 56.0071 13.904 56.1351 13.312C56.2151 13.12 56.2791 12.936 56.3271 12.76C56.3751 12.568 56.3991 12.416 56.3991 12.304C56.4311 12.144 56.4951 11.912 56.5911 11.608C56.6871 11.288 56.7911 10.96 56.9031 10.624C57.0151 10.288 57.1191 9.99199 57.2151 9.73599C57.3271 9.46399 57.3991 9.29599 57.4311 9.23199C57.4951 9.23199 57.5511 9.17599 57.5991 9.06399C57.6471 8.95199 57.6711 8.83999 57.6711 8.72799C57.6711 8.59999 57.6951 8.45599 57.7431 8.29599C57.8071 8.13599 57.8711 8.02399 57.9351 7.95999C57.9351 7.87999 57.9511 7.79199 57.9831 7.69599C58.0311 7.58399 58.0551 7.49599 58.0551 7.43199C58.0551 7.36799 58.0711 7.30399 58.1031 7.23999C58.1511 7.17599 58.1751 7.11199 58.1751 7.04799C58.2871 6.83999 58.4311 6.51199 58.6071 6.06399C58.7991 5.59999 58.9991 5.08799 59.2071 4.52799C59.4311 3.96799 59.6391 3.41599 59.8311 2.87199C60.0231 2.32799 60.1751 1.87199 60.2871 1.50399C60.4151 1.11999 60.4791 0.887986 60.4791 0.807986C60.4791 0.679986 60.5271 0.559986 60.6231 0.447987C60.7191 0.335986 60.8311 0.279986 60.9591 0.279986C61.0071 0.231986 61.1191 0.199986 61.2951 0.183986C61.4711 0.151986 61.5911 0.135986 61.6551 0.135986C61.6551 0.135986 61.6871 0.167986 61.7511 0.231987C61.8151 0.295986 61.9111 0.391985 62.0391 0.519986C62.1671 0.631986 62.2871 0.759986 62.3991 0.903986C62.5271 1.04799 62.5911 1.21599 62.5911 1.40799C62.5911 1.61599 62.5591 1.81599 62.4951 2.00799C62.4471 2.19999 62.3511 2.46399 62.2071 2.79999C62.0631 3.11999 61.8391 3.59999 61.5351 4.23999C61.4071 4.55999 61.2711 4.86399 61.1271 5.15199C60.9831 5.42399 60.9111 5.59199 60.9111 5.65599C60.9111 5.71999 60.8791 5.81599 60.8151 5.94399C60.7671 6.07199 60.7111 6.23199 60.6471 6.42399C60.5831 6.55199 60.4951 6.74399 60.3831 6.99999C60.2711 7.23999 60.1511 7.50399 60.0231 7.79199C59.9111 8.06399 59.8151 8.30399 59.7351 8.51199C59.6551 8.70399 59.6151 8.81599 59.6151 8.84799C59.6151 8.91199 59.6071 8.97599 59.5911 9.03999C59.5911 9.10399 59.5591 9.16799 59.4951 9.23199C59.4311 9.23199 59.3911 9.27999 59.3751 9.37599C59.3751 9.45599 59.3751 9.49599 59.3751 9.49599C59.3751 9.65599 59.2471 10.08 58.9911 10.768C58.7351 11.648 58.4951 12.456 58.2711 13.192C58.0631 13.928 57.9591 14.52 57.9591 14.968C57.9591 15.352 57.8951 15.648 57.7671 15.856C57.6551 16.064 57.5351 16.2 57.4071 16.264Z" fill="#1B1F20"/>
<g clip-path="url(#clip0_917_563)">
<path d="M14.9788 69.4073C13.2723 67.8881 11.5884 66.4466 9.70895 64.7677C9.1452 66.158 9.53478 67.3502 10.2717 68.1443C12.4825 70.5264 14.7708 72.8856 17.2466 75.0205C18.6574 76.2476 20.1406 75.5552 20.491 73.722C21.1176 70.6681 21.5664 67.5824 22.0927 64.4738C22.125 64.2956 22.1848 64.0669 22.112 63.9619C21.8987 63.519 21.5803 63.1493 21.2894 62.7293C20.9469 62.9995 20.404 63.1603 20.2893 63.4895C19.8629 64.6282 19.5641 65.7712 19.2152 66.8869C19.0133 67.4951 18.889 68.0803 18.1991 68.7486C17.9 67.867 17.5509 66.9581 17.2519 66.0765C11.8654 47.594 19.1649 28.264 35.359 17.7724C37.4546 16.4346 39.6682 15.3571 41.8365 14.1242C42.5942 13.6888 43.3019 13.2261 44.0597 12.7908C44.0419 12.5851 43.9465 12.4025 43.9287 12.1968C43.3955 12.1017 42.7669 11.8239 42.2741 12.0121C40.6179 12.5449 38.9618 13.0776 37.3735 13.8434C21.5457 21.4003 11.7204 38.568 13.0042 56.7052C13.2567 60.1736 14.1249 63.5862 14.7377 66.99C14.8639 67.7119 15.095 68.3605 15.2987 69.0594C15.2939 69.1874 15.1614 69.311 14.9788 69.4073Z" fill="#1B1F20"/>
</g>
<defs>
<clipPath id="clip0_917_563">
<rect width="68" height="22" fill="white" transform="matrix(0.479087 -0.877768 -0.877768 -0.479087 19.3086 76.2285)"/>
</clipPath>
</defs>
</svg>
